<?xml version="1.0" encoding="utf-8"?>
<!-- Generator: Adobe Illustrator 26.0.2, SVG Export Plug-In . SVG Version: 6.00 Build 0)  -->
<svg version="1.1" id="Layer_1" xmlns="http://www.w3.org/2000/svg" xmlns:xlink="http://www.w3.org/1999/xlink" x="0px" y="0px"
	 viewBox="0 0 200 200" style="enable-background:new 0 0 200 200;" xml:space="preserve">
<style type="text/css">
	.st0{fill:#FFFFFF;}
	.st1{fill:#C5A07F;}
	.st2{fill:#D4BB88;}
	.st3{fill:#C8A282;}
	.st4{fill:#991C1F;}
	.st5{fill:#D0B185;}
	.st6{fill:#D2B887;}
	.st7{fill:#CCAC84;}
	.st8{fill:#D0B186;}
	.st9{fill:#CEAD84;}
	.st10{fill:#D4BA88;}
	.st11{fill:#D2B987;}
	.st12{fill:#D1B586;}
	.st13{fill:#CFB086;}
	.st14{fill:#CFAF85;}
	.st15{fill:#D1B486;}
	.st16{fill:#D2B787;}
	.st17{fill:#C9A382;}
	.st18{fill:#D3B988;}
	.st19{fill:#D0B286;}
	.st20{fill:#C7A280;}
	.st21{fill:#C9A582;}
	.st22{fill:#CCAA83;}
	.st23{fill:#D1B686;}
	.st24{fill:#C9A682;}
	.st25{fill:#D4B988;}
	.st26{fill:#D3B987;}
	.st27{fill:#C7A281;}
	.st28{fill:#C9A984;}
	.st29{fill:#C7A381;}
	.st30{fill:#CFAE84;}
	.st31{fill:#CAAA84;}
	.st32{fill:#CAA984;}
	.st33{fill:#CAA784;}
	.st34{fill:#CCAD84;}
	.st35{fill:#CCAD85;}
	.st36{fill:#FEFDFD;}
	.st37{fill:#FEFEFE;}
	.st38{fill:#CFAF86;}
	.st39{fill:#D9C0A8;}
	.st40{fill:#F3EBE3;}
	.st41{fill:#D1B397;}
	.st42{fill:#ECE26E;}
	.st43{fill:#D5BE9F;}
	.st44{fill:#D4B987;}
	.st45{fill:#FFFFFE;}
	.st46{fill:#FFFEFE;}
	.st47{fill:#CFB085;}
	.st48{fill:#D1B485;}
	.st49{fill:#D1B886;}
	.st50{fill:#D2B686;}
	.st51{fill:#DAC8AB;}
	.st52{fill:#CEAD83;}
</style>
<g>
	<path class="st0" d="M3.77,101.77c0-32.73,0-65.45-0.02-98.18c0-0.65,0.11-0.84,0.81-0.84c63.97,0.02,127.95,0.02,191.92,0
		c0.75,0,0.86,0.17,0.86,0.88c-0.02,65.42-0.02,130.85,0,196.27c0,0.7-0.1,0.89-0.86,0.88c-63.94-0.02-127.89-0.02-191.83,0
		c-0.78,0-0.9-0.19-0.9-0.93C3.77,167.16,3.77,134.47,3.77,101.77z"/>
	<path class="st1" d="M136.63,86.73c0.67,0.45,0.47,1.17,0.57,1.8c0.09,0.53,0.09,1.06,0,1.59c-0.02,0.88-0.03,1.77-0.05,2.65
		c-0.19,0.41,0.02,0.87-0.13,1.29c-0.67,4.77-1.87,9.37-4.1,13.69c-1.96,3.79-4.49,7.09-7.44,10.17c-2.31,2.41-4.99,4.23-7.76,5.96
		c-1.41,0.88-3.05,1.4-4.53,2.2c-1.7,0.92-3.55,1.35-5.37,1.89c-0.48,0.14-1.01,0.03-1.46,0.3c-0.28,0.18-0.63-0.04-0.91,0.16
		c-0.43-0.07-0.82,0.13-1.23,0.2c-0.41,0.19-0.88-0.05-1.29,0.15c-0.29,0.01-0.58,0.03-0.86,0.04c-0.42,0.16-0.87-0.06-1.28,0.14
		c-1.23,0-2.45,0-3.68,0c-0.41-0.19-0.87,0.03-1.29-0.14c-0.29-0.01-0.57-0.03-0.86-0.04c-0.35-0.18-0.76,0.02-1.11-0.14
		c-0.47-0.07-0.94-0.14-1.41-0.21c-0.28-0.19-0.64,0.03-0.92-0.16c-1.71-0.35-3.45-0.61-5.02-1.42c-0.17-0.86,0.29-1.55,1.08-1.63
		c0.8,0.06,1.48,0.58,2.3,0.56c0.46-0.03,0.9,0.03,1.28,0.32c0.05,0.03,0.11,0.04,0.17,0.03c0.22,0.17,0.49,0.03,0.72,0.12
		c0.17,0.26,0.51,0.23,0.73,0.41c0.22,0.01,0.45,0.01,0.67,0.02c0.29,0.17,0.64-0.01,0.93,0.14c0.86,0.34,1.76,0.2,2.65,0.22
		c1.28,0.13,2.56,0.13,3.84,0c0.9,0.06,1.78,0,2.65-0.22c0.29-0.15,0.64,0.03,0.93-0.14c0.17-0.01,0.33-0.02,0.5-0.04
		c0.16-0.16,0.4-0.17,0.56-0.33c0.06,0.01,0.11,0.01,0.16-0.02c0.28-0.18,0.63,0.05,0.9-0.16c2.7-0.61,5.33-1.42,7.82-2.66
		c0.71-0.35,1.58-0.52,2.07-1.12c0.55-0.69-0.19-1.53-0.07-2.31c-0.17-0.35,0.05-0.75-0.15-1.1c-0.07-0.53-0.13-1.05-0.2-1.58
		c-0.21-0.34,0.05-0.75-0.17-1.09c-0.13-0.77-0.25-1.54-0.38-2.31c-0.17-0.28,0.04-0.63-0.15-0.91c-0.05-0.53-0.36-0.88-0.76-1.2
		c-2.41-1.91-4.9-3.72-7.45-5.44c-0.35-0.24-0.76-0.23-1.09-0.04c-1.37,0.78-2.92,1.16-4.31,1.9c-0.25,0.24-0.54,0.4-0.9,0.31
		c-0.54,0.17-1.07,0.35-1.61,0.52c-0.46-0.23-0.26-0.53-0.07-0.79c0.39-0.55,0.74-1.13,1.2-1.63c1.06-0.67,2.28-0.96,3.39-1.51
		c0.18-0.09,0.46-0.11,0.5-0.32c0.06-0.3-0.28-0.33-0.45-0.47c-0.32-0.25-0.76-0.35-0.92-0.79c0.28-1.04,0.64-2.01,1.72-2.5
		c0.65,0.49,1.09,1.16,1.57,1.8c0.89,1.2,2.1,2,3.31,2.82c1.7,1.15,3.36,2.35,5.18,3.64c-0.39-2.07-1.04-3.9-1.53-5.77
		c-0.87-3.32-2.35-6.4-3.52-9.61c-0.05-0.6,0.38-0.95,0.71-1.35c0.18-0.22,0.41-0.21,0.58,0.06c1.05,2.1,1.78,4.34,2.67,6.51
		c0.26,0.64,0.36,1.36,0.83,2.07c0.22-0.64-0.05-1.25,0.26-1.75c0.21-0.34-0.05-0.76,0.17-1.1c0.06-0.35,0.12-0.7,0.18-1.05
		c0.19-0.28-0.01-0.62,0.15-0.91c0.07-0.41,0.14-0.82,0.21-1.23c0.2-0.35-0.04-0.75,0.16-1.1c0.09-0.36,0.03-0.73-0.02-1.09
		c-0.12-0.7-0.02-1.4-0.06-2.1c0-1.61,0.02-3.22-0.01-4.82c-0.02-1.21,0.74-1.96,1.47-2.74c0.11-0.11,0.27-0.1,0.42-0.04
		c0.35,0.45,0.23,0.96,0.19,1.46c-0.18,0.6-0.2,1.22-0.22,1.82c0.04-0.12,0.01-0.26,0.02-0.39c0.62-2.32,1.63-4.47,2.71-6.6
		c1.19-2.37,2.72-4.49,4.56-6.38c2.14-2.2,4.43-4.26,7.12-5.79c0.13-0.07,0.26-0.14,0.4-0.2c0.71-0.29,1.29-0.16,1.57,0.36
		c0.3,0.55,0.14,1.27-0.5,1.61c-1.49,0.8-2.72,1.93-4.03,2.95c-3.91,3.05-6.6,7-8.55,11.51c-1.16,2.69-1.8,5.54-2.61,8.48
		c0.92-0.24,1.62-0.61,2.34-0.92c1.95-0.84,3.86-1.74,5.63-2.91c3.96-2.61,6.77-6.11,8.57-10.5c1.78-4.33,2.74-8.88,3.8-13.41
		c0.15-0.65-0.08-0.87-0.71-0.86c-2.02,0.01-4.05-0.04-6.07,0.12c-0.44-0.14-0.29-0.41-0.14-0.68c0.26-0.48,0.49-0.98,0.77-1.46
		c0.19-0.25,0.49-0.12,0.73-0.21c1.66-0.09,3.33-0.1,4.99,0c0.54,0.15,1.1,0.2,1.66,0.24c0.98,0.06,1.33,0.61,1.12,1.56
		c-0.52,2.32-1.02,4.65-1.53,6.98c-0.22,0.27,0.08,0.66-0.22,0.91c-0.94,3.01-1.82,6.03-3.15,8.91c-0.98,2.11-2.28,3.98-3.71,5.79
		c-1.62,2.05-3.65,3.61-5.87,4.88c-2.11,1.21-4.31,2.31-6.61,3.15c-0.41,0.15-0.8,0.37-1.2,0.56c-0.15,0.18-0.4,0.19-0.56,0.35
		c-0.81,0.19-0.68,0.84-0.7,1.42c-0.19,0.28,0.01,0.62-0.15,0.91c-0.26,0.81-0.39,1.65-0.39,2.5c-0.21,0.34,0.03,0.74-0.16,1.09
		c-0.2,0.45-0.23,0.92-0.21,1.39c-0.2,0.41,0.05,0.88-0.16,1.29c-0.28,0.38-0.18,0.81-0.19,1.23c-0.19,0.28,0,0.62-0.14,0.91
		c-0.12,1.15,0.38,2.17,0.63,3.24c0.31,0.24-0.01,0.63,0.23,0.89c0.15,1.27,0.33,2.54,0.73,3.76c0.17,0.28-0.04,0.63,0.16,0.91
		c0.01,0.36-0.06,0.74,0.19,1.05c0.21,0.34-0.05,0.75,0.17,1.09c0.03,1.02,0.16,2.03,0.4,3.03c0.13,0.3-0.03,0.64,0.13,0.93
		c-0.01,0.27-0.11,0.63,0.11,0.76c0.27,0.15,0.52-0.14,0.76-0.3c3.19-2.19,5.89-4.9,8.29-7.91c2.43-3.04,4.27-6.45,5.59-10.1
		c0.8-2.23,1.49-4.54,1.75-6.93c0.04-0.33,0.29-0.6,0.18-0.94c0.19-0.48-0.04-1,0.14-1.48c0.01-0.17,0.02-0.34,0.03-0.5
		c0.17-0.29,0-0.63,0.13-0.93c0.01-1.37,0.02-2.73,0.04-4.1c0.01-0.4-0.1-0.85,0.35-1.12C136.03,86.51,136.33,86.51,136.63,86.73z"
		/>
	<path class="st2" d="M78.25,41.77c2.21,0.34,4.39,0.8,6.48,1.62c0.25,0.1,0.5,0.16,0.69,0.37c-0.58,0.46-0.85,1.36-1.81,1.28
		c-0.76-0.15-1.47-0.47-2.23-0.65c-1.69-0.4-3.39-0.62-5.13-0.58c-0.73,0.02-1.09,0.27-1.24,0.97c-0.63,2.85-0.86,5.7-0.31,8.59
		c0.2,1.08,0.46,2.15,0.73,3.22c0.08,0.81-0.16,1.51-0.71,2.12c-0.44,0.48-0.76,1.06-1.16,1.57c-0.77,0.68-1.76,0.99-2.59,1.56
		c-0.22,0.15-0.46,0.27-0.68,0.43c-0.53,0.36-0.74,0.77-0.25,1.32c0.18,0.2,0.32,0.43,0.34,0.71c0.03,0.77-0.61,1.21-0.9,1.82
		c-0.87-0.94-1.7-1.91-2.33-3.05c-0.14-0.3-0.12-0.59-0.01-0.89c1.69-1.65,3.68-2.82,5.83-3.73c0.6-0.25,0.88-0.5,0.53-1.14
		c-0.39-0.71-0.33-1.55-0.63-2.29c-0.19-0.28,0.03-0.64-0.16-0.92c-0.07-0.41-0.14-0.82-0.21-1.24c-0.18-0.41,0.05-0.87-0.15-1.28
		c0-1.12,0-2.23,0-3.35c0.22-0.47-0.04-0.98,0.15-1.45c0.16-1.43,0.5-2.81,0.92-4.18c0.15-0.48,0.41-0.76,0.89-0.85
		C75.63,41.66,76.94,41.67,78.25,41.77z"/>
	<path class="st3" d="M115.65,82.25c0.09-0.7-0.01-1.41,0.22-2.1c0.18-0.3-0.04-0.66,0.16-0.95c0.39-2.82,1.35-5.44,2.55-8
		c1.81-3.88,4.68-6.6,8.6-8.34c0.99-0.44,1.95-0.89,3-1.17c0.01,0.78-0.76,1.12-1.02,1.75c-0.12,0.29-0.44,0.49-0.38,0.86
		c-0.48,0.47-1.13,0.64-1.71,0.94c-2.55,1.34-4.53,3.23-5.94,5.76c-1.38,2.47-2.37,5.07-2.91,7.84c-0.04,0.2-0.06,0.42-0.24,0.56
		c-0.79,0.69-1.24,1.64-1.86,2.46C116,82.03,115.99,82.34,115.65,82.25z"/>
	<path class="st4" d="M103.81,139.21c1.28,2.22,0.03,4.25-2.56,4.27c-0.56,0-1.43-0.24-1.44,0.59c-0.02,0.93,0.9,0.6,1.47,0.65
		c0.77,0.07,1.54-0.09,2.31,0.13c0.78,0.22,1.38,0.62,1.5,1.46c0.13,0.91-0.23,1.71-1.02,2.12c-1.67,0.87-3.45,0.87-5.17,0.22
		c-1.08-0.41-1.03-1.34,0-2.17c-0.8-0.9-1.14-1.9,0.75-3.26c-0.89-0.52-1.43-1.21-1.54-2.3c-0.2-1.86,1.51-3.1,3.54-2.78
		c0.89,0.14,1.78,0.12,2.66,0.15c0.32,0.01,0.78-0.16,0.79,0.43c0.02,0.59-0.43,0.43-0.76,0.46
		C104.17,139.2,104,139.2,103.81,139.21z"/>
	<path class="st4" d="M110.83,138.78c-0.02-0.87,0.12-1.63-0.11-2.4c-0.11-0.38-0.11-0.78-0.65-0.79c-0.17,0-0.28-0.12-0.26-0.29
		c0.02-0.18,0.18-0.23,0.33-0.23c0.8,0,1.61-0.01,2.41,0c0.59,0.01,0.43,0.47,0.43,0.79c0.01,2.62,0,5.25,0.01,7.87
		c0,0.35-0.06,0.71,0.25,1c0.14,0.13,0.45,0.16,0.38,0.43c-0.08,0.27-0.36,0.25-0.6,0.28c-0.44,0.06-0.89,0.1-1.31,0.22
		c-0.48,0.14-0.88,0.29-0.89-0.47c-0.01-0.35-0.24-0.22-0.43-0.09c-2.06,1.33-3.8,0.69-4.28-1.72c-0.25-1.23-0.26-2.53,0.39-3.74
		c0.82-1.53,2.39-1.99,3.88-1.06C110.47,138.64,110.58,138.67,110.83,138.78z"/>
	<path class="st4" d="M80.42,143.83c-0.08,1.8-0.08,1.8-1.84,1.8c-2.23,0-4.47,0-6.7,0c-0.28,0-0.59,0.09-0.97-0.18
		c1.63-0.32,1.41-1.56,1.43-2.66c0.02-1.67-0.01-3.34,0.01-5.01c0.01-0.54-0.12-1.06-0.18-1.58c-0.04-0.35-0.17-0.55-0.53-0.59
		c-0.26-0.03-0.52-0.08-0.69-0.45c1.77,0,3.49,0,5.21,0c0,0.07,0,0.17-0.01,0.17c-1.33,0.16-1.35,1.07-1.32,2.13
		c0.06,2.08,0.01,4.17,0.02,6.26c0,0.99,0.2,1.18,1.21,1.2c2.42,0.06,3.14-0.45,3.89-2.64c0.07-0.2,0.05-0.57,0.37-0.53
		c0.4,0.05,0.21,0.42,0.25,0.65c0.02,0.18,0.01,0.36,0.01,0.54C80.38,143.2,80.6,143.55,80.42,143.83z"/>
	<path class="st4" d="M89.89,139.02c-0.18-0.17-0.59-0.18-0.49-0.53c0.1-0.34,0.46-0.19,0.7-0.2c0.47-0.02,0.95-0.01,1.43-0.01
		c0.12,0,0.31-0.04,0.35,0.02c0.58,0.89,1.07,0.08,1.57-0.09c1.37-0.48,2.65,0.4,2.7,1.92c0.04,1.16,0.02,2.32,0.01,3.48
		c-0.01,0.7-0.08,1.42,0.62,2.01c-1.05,0-2.11,0.01-3.16,0c-0.23,0-0.34-0.15-0.19-0.35c0.75-0.95,0.56-2.06,0.58-3.14
		c0.01-0.5-0.01-1.01-0.01-1.52c-0.18-0.28,0.04-0.63-0.16-0.91c-0.21-0.4-0.61-0.45-0.92-0.29c-0.43,0.21-0.69,0.64-0.7,1.15
		c-0.01,1.15,0.01,2.31,0.01,3.47c0.18,0.27-0.05,0.62,0.16,0.89c0.03,0.28,0.46,0.28,0.44,0.71c-1.03,0-2.06,0-3.09,0
		c-0.23,0-0.49-0.1-0.26-0.36c0.72-0.83,0.56-1.83,0.57-2.79c0.01-0.86-0.01-1.72-0.01-2.58C89.88,139.63,90.11,139.28,89.89,139.02
		z"/>
	<path class="st4" d="M125.7,144.91c0.03,0.28,0.46,0.28,0.44,0.71c-1.03,0-2.06,0-3.09,0c-0.23,0-0.49-0.1-0.26-0.36
		c0.72-0.83,0.56-1.83,0.57-2.79c0.01-0.86-0.01-1.72-0.01-2.58c-0.18-0.26,0.05-0.61-0.16-0.87c-0.18-0.17-0.59-0.18-0.49-0.53
		c0.1-0.34,0.46-0.19,0.7-0.2c0.47-0.02,0.95-0.01,1.43-0.01c0.12,0,0.31-0.04,0.35,0.02c0.58,0.89,1.07,0.08,1.57-0.09
		c1.37-0.48,2.65,0.4,2.7,1.92c0.04,1.16,0,2.32,0.01,3.48c0,0.69-0.21,1.45,0.81,1.82c-0.06,0.06-0.13,0.12-0.19,0.19
		c-1.05,0-2.11,0.01-3.16,0c-0.23,0-0.34-0.15-0.19-0.35c0.75-0.95,0.56-2.06,0.58-3.14c0.01-0.5-0.01-1.01-0.01-1.52
		c-0.18-0.28,0.04-0.63-0.16-0.91c-0.21-0.4-0.61-0.45-0.92-0.29c-0.43,0.21-0.69,0.64-0.7,1.15c-0.01,1.15,0.01,2.31,0.01,3.47
		C125.72,144.29,125.49,144.64,125.7,144.91z"/>
	<path class="st5" d="M102.2,49.32c0.47,0.57,1.03,1.07,1.32,1.78c-0.27,0.57-0.6,1.08-1.24,1.3c-1.05,0.34-1.7,1.22-2.34,2
		c-1.44,1.78-2.89,3.55-3.96,5.6c-1.43,2.73-2.46,5.6-3.13,8.61c-0.25,0.77-1,1.22-1.25,2.01c-0.05,0.16-0.6,0.49-0.95,0.05
		c-0.16-0.56-0.14-1.12,0.1-1.66c0.18-0.29,0.17-0.61,0.16-0.94c0.21-2.29,1.09-4.39,1.81-6.54c0.07-0.2,0.2-0.36,0.37-0.49
		c1.09-0.99,1.8-2.28,2.67-3.44c1.42-1.87,2.64-3.88,4.06-5.75c0.09-0.12,0.12-0.27,0.16-0.41c0.13-0.48,0.64-0.63,0.89-1
		c0.21-0.28,0.37-0.59,0.61-0.85C101.66,49.38,101.84,49.09,102.2,49.32z"/>
	<path class="st4" d="M85.06,139.18c-0.13-0.12-0.25-0.24-0.38-0.36c-0.29-0.16-0.59-0.13-0.89,0c-0.49,0.08-0.63,0.28-0.3,0.72
		c0.34,0.44,0.48,0.95,0,1.36c-0.44,0.38-1.02,0.41-1.5,0.1c-0.51-0.33-0.39-0.9-0.26-1.39c0.11-0.41,0.4-0.73,0.78-0.94
		c0.97-0.55,2.03-0.69,3.11-0.5c1.18,0.21,1.75,0.99,1.76,2.22c0.01,1.01-0.02,2.03,0.01,3.04c0.02,0.43-0.3,1.06,0.52,1.19
		c0.19,0.03,0.09,0.24,0.01,0.36c-0.66,0.95-2.15,1.26-2.63,0.13c-0.21-0.5-0.36-0.3-0.62-0.09c-0.28,0.22-0.57,0.43-0.88,0.6
		c-0.67,0.37-1.7,0.23-2.07-0.25c-0.4-0.53-0.31-1.59,0.14-2.18c0.71-0.92,1.63-1.56,2.7-1.96c0.59-0.22,0.77-0.59,0.66-1.16
		C85.04,139.8,85.27,139.45,85.06,139.18z"/>
	<path class="st6" d="M88.46,45.38c1.13,0.87,1.12,0.86,1.92-0.33c1.08-1.61,2.38-3.04,3.79-4.37c0.65-0.62,1.35-0.34,2.01,0.76
		c-0.02,0.71-0.8,0.6-1.11,1.03c-0.15,0.22-0.42,0.37-0.52,0.66c-2,2.19-3.42,4.75-4.75,7.37c-0.08,0.16-0.19,0.3-0.37,0.37
		c-0.59,0.15-0.7,0.74-1.03,1.13c-0.09,0.39-0.24,0.72-0.68,0.84c-0.31,0.09-0.42,0.41-0.46,0.65c-0.06,0.36-0.1,0.79-0.49,0.81
		c-0.35,0.02-0.4-0.44-0.53-0.73c0.37-1.59,1.1-3.04,1.83-4.49c0.5-0.99,0.49-0.99-0.36-1.63c-0.23-0.17-0.54-0.28-0.53-0.65
		C87.73,46.45,87.72,45.58,88.46,45.38z"/>
	<path class="st4" d="M114.78,141.93c-0.22-1.77,1.07-3.59,2.63-3.81c2.21-0.31,4.01,1.12,4.17,3.36c0.1,1.4-0.18,2.67-1.3,3.62
		c-1.09,0.92-2.38,0.98-3.61,0.45c-1.32-0.57-1.87-1.75-1.89-3.18C114.78,142.22,114.78,142.07,114.78,141.93z"/>
	<path class="st7" d="M108.16,67.22c-0.31,2.45-1.22,4.68-2.55,6.74c-0.76,1.18-1.66,2.24-2.67,3.21c-0.22,0.21-0.57,0.37-0.51,0.78
		c-0.24,0.61-0.47,1.24-1.07,1.61c-0.28-0.46-0.59-0.52-1.03-0.17c-0.38,0.3-0.79,0.6-1.28,0.71c-0.46-0.12-0.49-0.14-0.22-0.54
		c0.5-0.73,0.89-1.53,1.46-2.22c0.23-0.27,0.41-0.58,0.56-0.9c1.41-1.36,2.7-2.8,3.71-4.5c0.46-0.77,0.58-1.68,1.14-2.39
		c0.71-0.65,1.13-1.52,1.73-2.25c0.15-0.18,0.27-0.41,0.52-0.46C108.27,66.8,108.29,66.98,108.16,67.22z"/>
	<path class="st8" d="M69.12,101.78c-0.12-0.09-0.23-0.19-0.35-0.28c-1.55-1.06-1.65-1.33-0.52-2.77c1.78-2.28,3.67-4.46,6.12-6.06
		c0.66-0.43,1.3-0.92,2.09-1.13c0.09,0.76-0.51,1.19-0.87,1.72c-0.38,0.56-0.95,0.99-0.99,1.74c-0.38,0.69-1.08,1.08-1.59,1.65
		c-0.79,0.88-1.71,1.64-2.45,2.58c-0.28,0.36-0.34,0.66-0.11,1.04c-0.14,0.65-0.67,1.08-0.91,1.68
		C69.32,102.06,69.23,101.91,69.12,101.78z"/>
	<path class="st9" d="M101,76.55c-0.68,1.06-1.36,2.12-2.06,3.18c-0.13,0.2-0.29,0.34,0.1,0.38c-1.76,1.12-3.77,1.53-5.76,1.99
		c-0.34,0.11-0.69,0.03-1.03,0.05c-0.5,0-1,0.01-1.51,0c-0.64-0.02-0.72-0.18-0.41-0.75c0.17-0.31,0.4-0.58,0.59-0.88
		c0.09-0.16,0.19-0.31,0.31-0.46c0.3-0.29,0.51-0.65,0.78-0.97c0.2-0.25,0.4-0.54,0.8-0.45c0.16,0.1,0.28,0.25,0.3,0.42
		c0.1,0.87,0.57,0.89,1.31,0.73c2.04-0.46,3.78-1.5,5.45-2.69C100.21,76.86,100.47,76.41,101,76.55z"/>
	<path class="st10" d="M67.69,68.67c0.59,0.47,0.59,0.96,0.23,1.62c-0.95,1.75-1.83,3.55-2.74,5.33c-0.87,1.07-1.66,2.2-2.38,3.39
		c-0.32,0.53-0.33,0.52-0.79,0.39c0.68-2.77,1.7-5.41,3.09-7.91c0.54-0.97,0.88-2.06,1.7-2.86C67.1,68.55,67.4,68.48,67.69,68.67z"
		/>
	<path class="st9" d="M108.16,67.22c-0.36-0.6-0.42,0.05-0.52,0.16c-0.65,0.75-1.01,1.72-1.85,2.33c-0.22-0.31-0.1-0.63,0-0.94
		c0.85-2.66,0.89-5.35,0.39-8.08c-0.07-0.38-0.14-0.76-0.13-1.15c0.15-0.6,0.6-1.01,0.97-1.46c0.3-0.37,0.48-0.17,0.6,0.17
		c0.58,1.13,0.59,2.4,0.91,3.59c0.11,1.37,0.11,2.73,0,4.1C108.28,66.34,108.47,66.85,108.16,67.22z"/>
	<path class="st9" d="M87.57,90.13c0.99,0.42,2.11,0.47,3.06,1.03c0.04,0.81-0.27,1.22-1.2,1.61c-0.61,0.02-1.15-0.27-1.73-0.41
		c-1.7-0.41-3.42-0.45-5.15-0.37c-0.36,0.02-0.71,0.02-1.07-0.05c-0.52-0.14-0.45-0.47-0.24-0.81c0.25-0.4,0.52-0.78,0.82-1.15
		c0.1-0.09,0.23-0.14,0.35-0.2c0.99,0,1.98,0,2.98,0c0.29,0.18,0.63-0.01,0.92,0.14c0.12,0.01,0.23,0.02,0.35,0.03
		C86.93,90.17,87.29,89.92,87.57,90.13z"/>
	<path class="st9" d="M110.49,54.5c-0.12-0.07-0.23-0.13-0.35-0.2c-0.26-0.22-0.58-0.16-0.88-0.22c-0.5-0.19-0.93-0.44-1.07-1.02
		c0.38-0.42,0.66-1.01,1.41-0.72c2.39,0.66,4.75,1.39,6.81,2.85c-0.03,0.73-0.48,1.16-1.09,1.46c-1.43-0.6-2.85-1.2-4.28-1.81
		C110.89,54.68,110.63,54.69,110.49,54.5z"/>
	<path class="st11" d="M63.4,81.19c-0.1,1.31-0.63,2.56-0.55,3.9c-0.18,0.28,0.01,0.62-0.14,0.91c-0.01,0.3-0.02,0.59-0.03,0.89
		c-0.19,1.59-0.04,3.19-0.09,4.78c-0.07,0.51-0.29,0.28-0.38,0.04c-0.18-0.48-0.14-0.99-0.14-1.5c0-0.26,0.11-0.52,0.07-0.85
		c0.02-0.06-0.16,0.03-0.04,0.02c0.03,0,0.04,0.03,0.02,0.09c-0.17,0.66-0.65,1.12-1.07,1.61c-0.13,0.16-0.35,0.3-0.42-0.09
		c0.04-0.88-0.07-1.77,0.06-2.65c0.01-0.47,0.03-0.94,0.04-1.41c0.23-0.59-0.07-1.23,0.17-1.82c0.06-0.41,0.12-0.83,0.18-1.24
		c0.08-0.1,0.11-0.22,0.17-0.33c0.44-0.74,0.97-1.42,1.49-2.1c0.16-0.22,0.28-0.55,0.67-0.41c0.01,0.01,0.02,0.05,0.02,0.07
		C63.43,81.13,63.41,81.16,63.4,81.19z"/>
	<path class="st9" d="M79.33,107.51c-1.26-0.27-2.27-1.09-3.43-1.58c-1.14-0.49-2.02-1.43-3.19-1.86c-0.29-0.88,0.32-1.34,0.85-1.84
		c2.28,1.27,4.63,2.39,6.88,3.71C80.23,106.56,79.81,107.06,79.33,107.51z"/>
	<path class="st9" d="M67.19,111.79c-0.02-0.05-0.03-0.11-0.04-0.16c-0.02-0.8,0.4-1.43,1.1-1.64c0.21,0.2,0.32,0.44,0.35,0.72
		c-0.09,0.15-0.54,0.23-0.11,0.46c0.11,0.06,0.33-0.07,0.47,0.07c1.38,1.71,2.73,3.45,4.28,5.02c-0.32,0.51-0.66,1-1.08,1.44
		c-1.66-1.47-3.11-3.13-4.3-5.01C67.63,112.4,67.82,111.79,67.19,111.79z"/>
	<path class="st12" d="M62.83,95.67c0.3,1.28,0.59,2.56,0.91,3.83c0.22,0.88,0.49,1.75,0.74,2.62c-0.1,0.81-0.53,1.39-1.25,1.77
		c-0.86-1.93-1.41-3.95-1.78-6.03c-0.04-0.2-0.1-0.4-0.15-0.6c-0.08-0.78,0.42-1.29,0.83-1.84c0.12-0.16,0.25-0.36,0.49-0.28
		C62.87,95.22,62.69,95.52,62.83,95.67z"/>
	<path class="st3" d="M100.46,97.29c1.04,0.73,1.92,1.63,2.83,2.52c-0.66,0.96-1.4,1.87-1.95,2.9c-1.15-0.53-2.25-1.14-3.4-1.67
		c-0.14-0.06-0.23-0.18-0.26-0.34c0.21-0.68,0.42-1.36,1.29-1.46c0.56-0.02,1.01,0.26,1.45,0.55c0.04,0.02,0.07,0.06,0.09,0.11
		c0.04-0.03,0.03-0.06-0.05-0.1c-0.48-0.37-1.1-0.6-1.18-1.32C99.58,97.99,99.59,97.21,100.46,97.29z"/>
	<path class="st13" d="M82.19,89.94c-0.07,0.47-0.4,0.78-0.67,1.13c-0.15,0.2-0.42,0.37-0.22,0.68c0.01,0.34-0.28,0.35-0.49,0.4
		c-2.08,0.54-4.09,1.24-5.74,2.7c-0.16,0.14-0.36,0.21-0.58,0.12c-0.32-0.83,0.45-1.2,0.81-1.68c0.42-0.56,0.78-1.14,1.15-1.74
		c1.55-0.92,3.27-1.33,5.03-1.62C81.73,89.84,81.96,89.82,82.19,89.94z"/>
	<path class="st14" d="M91.15,80.49c-0.02,0.35-0.33,0.54-0.45,0.83c-0.09,0.22-0.51,0.34-0.31,0.63c0.15,0.23,0.49,0.09,0.74,0.11
		c0.38,0.02,0.76,0.02,1.14,0.02c0.03,0.07,0,0.12-0.07,0.15c-1.06,0-2.11,0-3.17,0c-0.34-0.2-0.74,0.01-1.09-0.14
		c-1.27-0.26-2.59-0.33-3.77-0.98c-0.17-0.88,0.42-1.29,1.03-1.7c1.38,0.14,2.69,0.64,4.08,0.75C89.9,80.22,90.6,79.99,91.15,80.49z
		"/>
	<path class="st12" d="M80.94,79.5c-1.63-1.15-3.15-2.4-4.3-4.06c-0.17-0.78,0.43-1.17,0.85-1.65c0.23-0.06,0.41,0.06,0.54,0.22
		c0.99,1.26,2.22,2.27,3.44,3.28c0.07,0.06,0.11,0.14,0.15,0.22C81.8,78.32,81.17,78.84,80.94,79.5z"/>
	<path class="st15" d="M102.2,49.32c-0.69,0.14-0.74,0.89-1.19,1.25c-0.09-0.01-0.19-0.02-0.25-0.08c-1.31-1.37-2.48-2.84-3.4-4.5
		c-0.04-0.08-0.03-0.17-0.02-0.26c0.24-0.55,0.46-1.12,1.16-1.25C99.91,45.95,100.92,47.74,102.2,49.32z"/>
	<path class="st13" d="M102.27,52.17c0.64-0.1,0.67-0.91,1.25-1.08c1.39,1.47,2.57,3.07,3.23,5.01c-0.53,0.33-0.65,1.07-1.28,1.31
		c-0.6-0.41-0.72-1.12-1.07-1.69c-0.55-0.9-1.06-1.83-1.77-2.63C102.42,52.85,102.11,52.59,102.27,52.17z"/>
	<path class="st16" d="M62.83,95.67c-0.09-0.14-0.18-0.28-0.3-0.47c-0.41,0.71-1.04,1.25-1.23,2.06c-0.03-0.17-0.05-0.35-0.08-0.52
		c-0.16-0.28,0.05-0.62-0.15-0.89c-0.28-0.51-0.09-1.07-0.19-1.6c-0.22-0.47,0.05-0.99-0.16-1.46c-0.01-0.47-0.03-0.94-0.04-1.41
		c-0.05-0.08-0.04-0.14,0.05-0.17c0.49-0.67,0.98-1.34,1.57-2.14c0.07,1.07-0.18,1.99,0.17,2.86c0.26,0.27-0.01,0.65,0.19,0.92
		c0.01,0.23,0.02,0.46,0.03,0.7c0.16,0.35-0.05,0.75,0.14,1.1C62.84,94.98,62.83,95.33,62.83,95.67z"/>
	<path class="st17" d="M92.73,110.71c-0.35,0.01-0.7,0.02-1.05,0.03c-0.28,0.11-0.56,0.06-0.85,0.04c-0.33-0.37-0.07-0.68,0.14-0.95
		c0.32-0.4,0.57-0.83,0.88-1.23c0.09-0.08,0.19-0.17,0.3-0.18c1.58-0.13,3.12-0.56,4.7-0.72c0.53,0.22,0.27,0.56,0.12,0.87
		c-0.2,0.42-0.58,0.75-0.65,1.24c-1,0.28-1.99,0.59-3.04,0.58C93.13,110.53,92.89,110.55,92.73,110.71z"/>
	<path class="st18" d="M63.4,81.19c-0.74,0.37-0.99,1.15-1.48,1.73c-0.22,0.26-0.33,0.62-0.68,0.77c-0.12-0.23-0.1-0.47-0.01-0.71
		c0.17-1.21,0.49-2.39,0.8-3.58c0.54,0.08,0.55-0.42,0.72-0.7c0.69-1.13,1.49-2.18,2.27-3.24c0.01-0.02,0.04-0.03,0.06-0.05
		c0.04,0.07,0.07,0.14,0.11,0.21C64.59,77.48,63.99,79.33,63.4,81.19z"/>
	<path class="st19" d="M63.23,103.89c0.42-0.59,0.83-1.18,1.25-1.77c0.58,1.43,1.17,2.87,1.75,4.3c-0.4,0.56-0.67,1.19-1.03,1.77
		C64.27,106.88,63.68,105.42,63.23,103.89z"/>
	<path class="st13" d="M65.19,108.2c0.05-0.76,0.33-1.39,1.03-1.77c0.67,1.19,1.35,2.38,2.02,3.57c-0.59,0.4-0.79,1.05-1.1,1.64
		C66.32,110.58,65.71,109.41,65.19,108.2z"/>
	<path class="st6" d="M74.32,72.39c-0.43-0.04-0.56-0.43-0.75-0.7c-0.61-0.88-1.37-1.67-1.76-2.7c-0.09-0.75,0.55-1.1,0.87-1.63
		c0.25-0.05,0.4,0.12,0.51,0.29c0.65,0.95,1.6,1.68,2.01,2.81C75.21,71.24,74.88,71.87,74.32,72.39z"/>
	<path class="st20" d="M115.65,82.25c0.68-0.99,1.16-2.12,2.18-2.85c0.45,0.58,0.14,1.2,0.04,1.78c-0.12,0.73,0.06,1.56-0.59,2.14
		c-0.95,0.89-1.87,1.77-1.8,3.26c0.06,1.43,0,2.86,0,4.29c-0.08,0.03-0.13,0-0.15-0.08c0-1.82,0-3.65,0-5.47
		c0.2-0.59-0.03-1.22,0.14-1.82C115.62,83.11,115.37,82.64,115.65,82.25z"/>
	<path class="st21" d="M91.86,108.74c-0.03,0.83-1,1.13-1.07,1.94c-0.22,0.21-0.46,0.13-0.71,0.06c-0.12-0.02-0.24-0.03-0.35-0.05
		c-0.32-0.27-0.73-0.09-1.08-0.19c-0.49-0.35-1.13,0.05-1.62-0.3c-0.33-0.53-0.05-1.26,0.64-1.68c0.23-0.14,0.49-0.18,0.76-0.2
		C89.58,108.37,90.75,108.32,91.86,108.74z"/>
	<path class="st13" d="M73.61,102.3c-0.36,0.56-0.88,1.03-0.91,1.76c-0.91-0.56-1.88-1.03-2.69-1.74c-0.33,0.03-0.5-0.12-0.53-0.45
		c0.06-0.65,0.53-1.06,0.9-1.54c0.16-0.15,0.34-0.11,0.49-0.02c0.89,0.54,1.79,1.06,2.63,1.67C73.6,102.06,73.64,102.17,73.61,102.3
		z"/>
	<path class="st22" d="M84.71,109.62c-1.34-0.17-2.52-0.81-3.76-1.26c-0.07-0.86,0.43-1.35,1.11-1.72c1.25,0.33,2.51,0.59,3.63,1.3
		C85.69,108.69,85.19,109.15,84.71,109.62z"/>
	<path class="st17" d="M107.79,86.73c0.72,1.22,1.48,2.42,1.98,3.75c-0.18,0.66-0.71,1.09-1.08,1.62c-0.66-1.25-1.32-2.5-1.97-3.75
		C106.66,87.54,107.12,87.07,107.79,86.73z"/>
	<path class="st22" d="M74.51,117.51c0.96,0.84,1.91,1.67,2.87,2.51c-0.27,0.55-0.55,1.08-0.91,1.58c-1.05-0.8-2.13-1.56-3.04-2.53
		C73.42,118.17,73.74,117.72,74.51,117.51z"/>
	<path class="st23" d="M74.32,72.39c0.13-0.69,0.76-1.21,0.72-1.97c0.22-0.05,0.34,0.1,0.44,0.24c0.59,0.83,1.25,1.6,1.85,2.41
		c0.16,0.22,0.32,0.44,0.23,0.73c-0.2,0.6-0.76,1-0.9,1.63C75.67,74.58,74.91,73.55,74.32,72.39z"/>
	<path class="st24" d="M107.79,86.73c-0.38,0.53-0.86,0.99-1.07,1.62c-0.66-1.2-1.31-2.39-1.97-3.59c0.04-0.73,0.36-1.28,1.03-1.6
		C106.49,84.33,107.36,85.41,107.79,86.73z"/>
	<path class="st8" d="M80.94,79.5c-0.01-0.51,0.1-1,0.47-1.38c0.18-0.19,0.15-0.36,0.08-0.56c0.33-0.18,0.58,0.03,0.81,0.19
		c0.78,0.55,1.59,1.04,2.46,1.41c0.16,0.07,0.33,0.16,0.3,0.39c-0.24,0.56-0.82,0.92-0.9,1.57C83.04,80.69,81.91,80.25,80.94,79.5z"
		/>
	<path class="st17" d="M84.52,126.08c-1.19-0.59-2.52-0.91-3.58-1.76c0.14-0.64,0.44-1.16,1.07-1.43c1.19,0.54,2.38,1.08,3.57,1.62
		C85.37,125.12,85.01,125.64,84.52,126.08z"/>
	<path class="st23" d="M98.5,44.47c-0.37,0.42-0.73,0.84-1.1,1.26c-0.42,0.08-0.57-0.26-0.75-0.51c-0.4-0.52-0.84-1.01-1.2-1.55
		c-0.27-0.41-0.63-0.59-1.08-0.65c0-0.61,0.58-0.88,0.91-0.99c0.4-0.13,0.56-0.47,0.9-0.6C97.01,42.4,97.83,43.38,98.5,44.47z"/>
	<path class="st22" d="M101.35,79.57c0.33-0.56,0.56-1.18,1.07-1.61c0.77,1.19,1.54,2.39,2.31,3.58c-0.4,0.43-0.55,1.1-1.24,1.25
		C102.78,81.72,102.07,80.64,101.35,79.57z"/>
	<path class="st25" d="M72.7,67.42c-0.04,0.67-0.74,0.97-0.89,1.58c-0.68-0.38-1-1.1-1.49-1.65c-0.32-0.36-0.56-0.8-0.84-1.2
		c-0.06-0.75,0.79-1.12,0.75-1.86c0.27-0.01,0.45,0.15,0.59,0.34c0.59,0.78,1.22,1.52,1.79,2.32C72.71,67.08,72.83,67.23,72.7,67.42
		z"/>
	<path class="st22" d="M92.79,92.09c1.16,0.45,2.23,1.05,3.22,1.79c-0.4,0.49-0.65,1.09-1.12,1.52c-0.12,0.03-0.24,0.06-0.35,0
		c-1.09-0.62-2.23-1.18-3.14-2.07C91.71,92.24,91.98,92,92.79,92.09z"/>
	<path class="st22" d="M118.02,56.11c1.11,0.51,2.12,1.16,3.04,1.96c0.07,0.73-0.49,1.09-0.9,1.54c-1.07-0.7-2.15-1.39-3.22-2.09
		C116.94,56.78,117.36,56.35,118.02,56.11z"/>
	<path class="st26" d="M88.46,45.38c-0.23,0.37-0.51,0.72-0.68,1.11c-0.13,0.28-0.3,0.32-0.55,0.31c-1.15-0.51-2.24-1.16-3.37-1.71
		c-0.07-0.04-0.08-0.15-0.08-0.24c0.68,0.05,0.75-0.68,1.18-0.95c0.16-0.1,0.3-0.11,0.45-0.14C86.52,44.14,87.51,44.72,88.46,45.38z
		"/>
	<path class="st24" d="M82.02,122.89c-0.36,0.48-0.72,0.95-1.07,1.43c-1.08-0.33-1.93-1.09-2.87-1.67c-0.12-0.71,0.17-1.21,0.9-1.55
		c0.47,0.24,0.94,0.49,1.41,0.73c0.54,0.04,0.92,0.35,1.26,0.74C81.77,122.67,81.9,122.78,82.02,122.89z"/>
	<path class="st24" d="M100.46,97.29c-0.61,0.22-0.72,0.85-1.09,1.28c-0.07,0.05-0.18,0.11-0.24,0.07
		c-0.99-0.65-2.01-1.26-2.73-2.24c0.15-0.67,0.44-1.2,1.21-1.27C98.65,95.73,99.59,96.47,100.46,97.29z"/>
	<path class="st20" d="M101.35,102.66c0.27-1.21,0.99-2.1,1.94-2.85c0.48,0.36,0.91,0.77,1.26,1.26c-0.71,0.71-1.26,1.53-1.59,2.49
		C102.25,103.57,101.7,103.3,101.35,102.66z"/>
	<path class="st27" d="M96.33,109.82c-0.49-0.09-0.16-0.35-0.08-0.5c0.27-0.48,0.72-0.87,0.8-1.46c1.02-0.72,2.13-1.16,3.4-1.09
		c-0.39,0.54-0.75,1.1-1.17,1.62c-0.19,0.24-0.28,0.43-0.09,0.69C98.26,109.39,97.36,109.83,96.33,109.82z"/>
	<path class="st20" d="M128.76,64.18c-0.47-0.08-0.21-0.31-0.08-0.48c0.49-0.67,1-1.34,1.5-2c0.66-0.07,1.31-0.14,1.97-0.21
		c0.09,0.63-0.39,1.05-0.59,1.57c-0.05,0.13-0.32,0.2-0.11,0.41C130.68,64.16,129.76,64.31,128.76,64.18z"/>
	<path class="st28" d="M84.71,109.62c0.14-0.62,0.68-1.02,0.89-1.6c0.98-0.22,1.89-0.11,2.7,0.54c-0.86,0.18-1.4,0.88-1.27,1.63
		C86.27,109.93,85.41,110.09,84.71,109.62z"/>
	<path class="st29" d="M84.52,126.08c0.26-0.59,0.52-1.18,1.07-1.57c0.67,0.2,1.35,0.38,1.98,0.71c-0.63,0.36-0.97,0.92-1.08,1.63
		C85.7,126.93,85.23,126.19,84.52,126.08z"/>
	<path class="st27" d="M108.69,92.11c0.01-0.77,0.71-1.09,1.08-1.62c0.46,0.66,0.8,1.39,1.07,2.15c-0.4-0.23-0.49,0.11-0.64,0.35
		c-0.21,0.32-0.42,0.63-0.64,0.95C109.21,93.35,108.9,92.75,108.69,92.11z"/>
	<path class="st30" d="M105.49,57.37c0.44-0.4,0.41-1.26,1.25-1.26c0.44,0.66,0.77,1.36,0.88,2.15c-0.15-0.02-0.18-0.39-0.45-0.06
		c-0.31,0.38-0.49,0.89-0.97,1.13C105.61,58.81,105.33,58.17,105.49,57.37z"/>
	<path class="st31" d="M103.5,82.79c0.48-0.35,0.57-1.09,1.24-1.25c0.35,0.54,0.7,1.08,1.04,1.63c-0.34,0.53-0.69,1.07-1.03,1.6
		C104.25,84.16,103.85,83.49,103.5,82.79z"/>
	<path class="st28" d="M97.62,95.13c-0.51,0.31-0.88,0.73-1.11,1.28c-0.72-0.09-1.34-0.32-1.61-1.07c0.25-0.58,0.39-1.24,1.11-1.46
		C96.71,94.08,97.07,94.73,97.62,95.13z"/>
	<path class="st31" d="M120.16,59.61c0.11-0.63,0.72-0.96,0.9-1.54c0.61,0.32,1.19,0.69,1.61,1.25c0,0.73-0.33,1.2-1.06,1.36
		C121.05,60.44,120.63,59.98,120.16,59.61z"/>
	<path class="st32" d="M78.98,121.1c-0.36,0.48-0.84,0.9-0.9,1.55c-0.54-0.35-1.08-0.7-1.61-1.05c0.09-0.65,0.32-1.22,0.91-1.58
		C77.98,120.27,78.45,120.73,78.98,121.1z"/>
	<path class="st33" d="M121.61,60.68c0.46-0.37,0.83-0.81,1.06-1.36c0.53,0.11,0.82,0.57,1.18,0.9c0.34,0.3,0.32,0.74-0.04,1.1
		c-0.39,0.39-0.82,0.48-1.27,0.17C122.2,61.26,121.92,60.95,121.61,60.68z"/>
	<path class="st34" d="M74.51,117.51c-0.65,0.32-0.79,0.99-1.08,1.55c-0.65-0.24-0.81-0.93-1.26-1.36c0.13-0.65,0.5-1.12,1.08-1.44
		C73.73,116.62,74.14,117.05,74.51,117.51z"/>
	<path class="st34" d="M82.01,106.78c-0.5,0.43-0.81,0.98-1.07,1.58c-0.56-0.24-1.18-0.37-1.62-0.85c0.21-0.59,0.5-1.12,1.07-1.44
		C81.11,105.92,81.65,106.15,82.01,106.78z"/>
	<path class="st35" d="M118.02,56.11c-0.36,0.47-0.82,0.86-1.08,1.41c-0.64-0.1-1.09-0.55-1.62-0.86c0.36-0.49,0.73-0.97,1.09-1.46
		C117,55.4,117.53,55.71,118.02,56.11z"/>
	<path class="st35" d="M92.79,92.09c-0.85-0.01-0.94,0.76-1.28,1.26c-0.79,0.12-1.44-0.13-1.97-0.73c0.51-0.38,0.94-0.82,1.09-1.46
		C91.39,91.37,92.13,91.64,92.79,92.09z"/>
	<path class="st36" d="M62.67,92.84c-0.24-0.27-0.11-0.62-0.19-0.92c0.01-1.36,0.01-2.73,0.03-4.09c0-0.32-0.06-0.66,0.17-0.94
		C62.67,88.88,62.67,90.86,62.67,92.84z"/>
	<path class="st37" d="M137.87,61.28c-1.66,0-3.33,0-4.99,0C134.54,61.03,136.21,61.03,137.87,61.28z"/>
	<path class="st37" d="M108.53,65.96c0-1.37,0-2.73,0-4.1C108.79,63.22,108.8,64.59,108.53,65.96z"/>
	<path class="st36" d="M78.25,41.77c-1.31,0-2.62,0.01-3.93,0.01C75.63,41.51,76.94,41.52,78.25,41.77z"/>
	<path class="st0" d="M100.86,127.02c-1.28,0.22-2.56,0.23-3.84,0C98.29,127.02,99.58,127.02,100.86,127.02z"/>
	<path class="st13" d="M68.96,111.25c-0.11,0.03-0.23,0.04-0.33,0.09c-0.17,0.08-0.3,0.32-0.54,0.18c-0.15-0.09-0.16-0.24-0.07-0.38
		c0.14-0.21,0.12-0.64,0.57-0.43C68.82,110.83,68.92,111.02,68.96,111.25z"/>
	<path class="st0" d="M91.14,126.09c-0.44-0.04-0.88-0.1-1.28-0.32C90.48,125.1,90.86,125.42,91.14,126.09z"/>
	<path class="st0" d="M81.65,122.56c-0.46-0.17-0.88-0.43-1.26-0.74C81.24,121.32,81.46,121.92,81.65,122.56z"/>
	<path class="st36" d="M60.73,91.2c-0.02,0.06-0.03,0.11-0.05,0.17c-0.25-1.01-0.24-2.01,0-3.02C60.69,89.3,60.71,90.25,60.73,91.2z
		"/>
	<path class="st38" d="M109.59,52.36c-0.67-0.16-0.86,0.63-1.41,0.72C108.44,52.22,108.73,52.07,109.59,52.36z"/>
	<path class="st0" d="M100.81,108.54c0.27-0.19,0.57-0.29,0.9-0.31c0,0.31-0.04,0.6-0.42,0.67
		C101.01,108.96,100.83,108.84,100.81,108.54z"/>
	<path class="st0" d="M69.48,101.87c0.18,0.15,0.35,0.3,0.53,0.45c-0.62,0.35-0.86,0.09-0.89-0.54
		C69.24,101.81,69.36,101.84,69.48,101.87z"/>
	<path class="st37" d="M115.34,90.8c0.05,0.03,0.1,0.05,0.15,0.08c0,0.7-0.01,1.4-0.01,2.1C115.16,92.27,115.38,91.53,115.34,90.8z"
		/>
	<path class="st13" d="M67.19,111.79c0.78-0.12,0.62,0.48,0.68,0.91C67.53,112.48,67.31,112.17,67.19,111.79z"/>
	<path class="st39" d="M88.65,110.5c0.4-0.16,0.81-0.36,1.08,0.19C89.36,110.69,88.95,110.86,88.65,110.5z"/>
	<path class="st40" d="M136.63,86.73c-0.3-0.01-0.6-0.01-0.9-0.02C136.04,86.17,136.34,86.16,136.63,86.73z"/>
	<path class="st37" d="M115.47,83.52c-0.02,0.61,0.11,1.23-0.14,1.82C115.38,84.73,115.17,84.1,115.47,83.52z"/>
	<path class="st36" d="M60.89,85.12c-0.05,0.61,0.12,1.24-0.17,1.82C60.79,86.33,60.51,85.69,60.89,85.12z"/>
	<path class="st38" d="M109.25,54.09c0.35-0.15,0.7-0.31,0.88,0.22C109.81,54.34,109.5,54.36,109.25,54.09z"/>
	<path class="st37" d="M137.19,90.12c0-0.53,0-1.06,0-1.59C137.43,89.06,137.43,89.59,137.19,90.12z"/>
	<path class="st0" d="M90.08,110.74c0.24-0.02,0.47-0.04,0.71-0.06c0.3,0.02,0.59,0.04,0.89,0.06
		C91.14,110.98,90.61,110.99,90.08,110.74z"/>
	<path class="st37" d="M135.18,93.36c-0.01,0.5,0.12,1.01-0.14,1.48C135.07,94.34,134.85,93.83,135.18,93.36z"/>
	<path class="st36" d="M60.72,92.78c0.29,0.46,0.13,0.97,0.16,1.46C60.54,93.79,60.78,93.27,60.72,92.78z"/>
	<path class="st36" d="M72.51,46.81c-0.02,0.49,0.11,0.99-0.15,1.45C72.41,47.78,72.18,47.27,72.51,46.81z"/>
	<path class="st41" d="M92.76,126.65c-0.29-0.01-0.64,0.11-0.72-0.33c0.04-0.09,0.1-0.11,0.18-0.05
		C92.45,126.31,92.63,126.44,92.76,126.65z"/>
	<path class="st37" d="M137.02,94.06c0-0.43-0.1-0.88,0.13-1.29C137.11,93.2,137.31,93.65,137.02,94.06z"/>
	<path class="st37" d="M116.04,103.2c0.03-0.43-0.1-0.89,0.16-1.29C116.16,102.33,116.37,102.8,116.04,103.2z"/>
	<path class="st36" d="M100.78,128.96c0.41-0.23,0.85-0.14,1.28-0.14C101.66,129.12,101.21,128.93,100.78,128.96z"/>
	<path class="st36" d="M95.81,128.83c0.43,0,0.88-0.09,1.29,0.14C96.67,128.93,96.21,129.12,95.81,128.83z"/>
	<path class="st36" d="M102.92,128.78c0.41-0.25,0.85-0.14,1.29-0.15C103.82,128.95,103.36,128.74,102.92,128.78z"/>
	<path class="st36" d="M72.36,51.61c0.26,0.4,0.14,0.85,0.15,1.28C72.2,52.49,72.4,52.04,72.36,51.61z"/>
	<path class="st0" d="M92.73,110.71c0.07-0.33,0.3-0.35,0.57-0.31C93.25,110.76,92.98,110.71,92.73,110.71z"/>
	<path class="st36" d="M93.84,128.64c0.38,0,0.76-0.09,1.11,0.14C94.58,128.75,94.18,128.93,93.84,128.64z"/>
	<path class="st0" d="M105.49,126.3c-0.06,0.32-0.29,0.36-0.56,0.33C104.97,126.26,105.24,126.29,105.49,126.3z"/>
	<path class="st37" d="M117.82,116.29c-0.25-0.33-0.16-0.72-0.17-1.09C117.97,115.52,117.77,115.92,117.82,116.29z"/>
	<path class="st36" d="M62.85,94.64c-0.22-0.34-0.14-0.73-0.14-1.1C62.99,93.87,62.81,94.27,62.85,94.64z"/>
	<path class="st0" d="M115.86,116.25c0.25,0.33,0.16,0.72,0.17,1.09C115.71,117.02,115.91,116.61,115.86,116.25z"/>
	<path class="st0" d="M116.23,118.92c0.24,0.34,0.15,0.73,0.15,1.1C116.08,119.68,116.26,119.29,116.23,118.92z"/>
	<path class="st37" d="M114.79,98.36c-0.01,0.37,0.08,0.77-0.17,1.1C114.66,99.1,114.45,98.69,114.79,98.36z"/>
	<path class="st37" d="M110.49,54.5c0.27-0.02,0.51,0.01,0.55,0.35C110.77,54.87,110.5,54.88,110.49,54.5z"/>
	<path class="st37" d="M117.8,94.6c0.05-0.34,0.28-0.38,0.56-0.35C118.34,94.63,118.07,94.61,117.8,94.6z"/>
	<path class="st37" d="M115.49,94.07c-0.02,0.37,0.08,0.76-0.16,1.1C115.37,94.8,115.18,94.4,115.49,94.07z"/>
	<path class="st36" d="M87.94,82.1c0.37,0.01,0.75-0.09,1.09,0.14C88.66,82.21,88.27,82.38,87.94,82.1z"/>
	<path class="st36" d="M92.19,82.24c0.02-0.05,0.05-0.1,0.07-0.15c0.34,0,0.68,0.01,1.02,0.01C92.95,82.38,92.56,82.21,92.19,82.24z
		"/>
	<path class="st37" d="M116.41,100.51c0-0.37-0.09-0.75,0.16-1.09C116.52,99.79,116.71,100.18,116.41,100.51z"/>
	<path class="st0" d="M92.21,126.27c-0.06,0.02-0.12,0.03-0.18,0.05c-0.24-0.06-0.52,0.02-0.73-0.2
		C91.61,126.15,91.95,126,92.21,126.27z"/>
	<path class="st0" d="M106.55,126.11c-0.27,0.24-0.59,0.16-0.9,0.16C105.91,126,106.25,126.15,106.55,126.11z"/>
	<path class="st37" d="M118.35,120.25c-0.21-0.29-0.14-0.61-0.13-0.93C118.47,119.6,118.33,119.94,118.35,120.25z"/>
	<path class="st37" d="M117.46,114.14c-0.22-0.28-0.16-0.6-0.16-0.91C117.58,113.49,117.43,113.83,117.46,114.14z"/>
	<path class="st0" d="M94.36,126.8c-0.32,0.01-0.64,0.07-0.93-0.14C93.74,126.69,94.08,126.54,94.36,126.8z"/>
	<path class="st0" d="M104.44,126.66c-0.29,0.21-0.61,0.15-0.93,0.14C103.79,126.54,104.13,126.69,104.44,126.66z"/>
	<path class="st0" d="M115.33,113.02c0.21,0.28,0.15,0.6,0.15,0.91C115.2,113.67,115.36,113.33,115.33,113.02z"/>
	<path class="st36" d="M91.51,128.27c0.31,0.01,0.64-0.05,0.92,0.16C92.12,128.4,91.77,128.56,91.51,128.27z"/>
	<path class="st36" d="M105.45,128.43c0.28-0.21,0.6-0.15,0.91-0.16C106.1,128.56,105.76,128.4,105.45,128.43z"/>
	<path class="st36" d="M62.71,86c-0.01-0.31-0.07-0.63,0.14-0.91C62.82,85.4,62.97,85.73,62.71,86z"/>
	<path class="st37" d="M115.71,105.34c-0.01-0.31-0.07-0.63,0.14-0.91C115.82,104.73,115.96,105.06,115.71,105.34z"/>
	<path class="st36" d="M67.14,62.21c0,0.3,0.01,0.59,0.01,0.89C66.89,62.8,66.89,62.51,67.14,62.21z"/>
	<path class="st36" d="M67.69,68.67c-0.29-0.01-0.59-0.03-0.88-0.04C67.11,68.4,67.41,68.36,67.69,68.67z"/>
	<path class="st37" d="M138.91,70.97c0.09-0.3-0.05-0.65,0.22-0.91C139.08,70.37,139.29,70.74,138.91,70.97z"/>
	<path class="st37" d="M115.12,96.4c0.01,0.31,0.08,0.63-0.15,0.91C115,97.01,114.85,96.67,115.12,96.4z"/>
	<path class="st37" d="M116.04,79.21c-0.01,0.32,0.08,0.66-0.16,0.95C115.9,79.83,115.73,79.48,116.04,79.21z"/>
	<path class="st36" d="M72.71,54.12c0.23,0.27,0.14,0.61,0.16,0.92C72.58,54.78,72.74,54.43,72.71,54.12z"/>
	<path class="st37" d="M116.96,96.92c-0.01-0.31-0.07-0.63,0.15-0.91C117.07,96.32,117.22,96.66,116.96,96.92z"/>
	<path class="st36" d="M83.8,138.82c0.3-0.24,0.59-0.27,0.89,0C84.39,138.82,84.09,138.82,83.8,138.82z"/>
	<path class="st36" d="M61.07,95.85c0.24,0.27,0.16,0.59,0.15,0.89C60.96,96.48,61.11,96.15,61.07,95.85z"/>
	<path class="st37" d="M135.34,91.93c0.02,0.32,0.08,0.64-0.13,0.93C135.23,92.54,135.09,92.21,135.34,91.93z"/>
	<path class="st36" d="M87.57,90.13c-0.31-0.01-0.64,0.07-0.91-0.18C86.96,89.99,87.31,89.83,87.57,90.13z"/>
	<path class="st36" d="M89.89,139.02c0.29,0.24,0.14,0.57,0.16,0.87C89.78,139.64,89.93,139.32,89.89,139.02z"/>
	<path class="st36" d="M123.2,139.02c0.29,0.24,0.14,0.57,0.16,0.87C123.09,139.64,123.24,139.32,123.2,139.02z"/>
	<path class="st36" d="M85.06,139.18c0.28,0.26,0.15,0.59,0.16,0.89C84.95,139.81,85.1,139.48,85.06,139.18z"/>
	<path class="st36" d="M93.84,139.7c0.27,0.27,0.14,0.6,0.16,0.91C93.72,140.34,93.87,140.01,93.84,139.7z"/>
	<path class="st36" d="M127.14,139.7c0.27,0.27,0.14,0.6,0.16,0.91C127.02,140.34,127.18,140.01,127.14,139.7z"/>
	<path class="st36" d="M61.22,82.98c0,0.24,0.01,0.47,0.01,0.71c-0.06,0.06-0.11,0.13-0.17,0.19
		C61.11,83.57,60.95,83.24,61.22,82.98z"/>
	<path class="st36" d="M86.3,89.93c-0.31,0-0.64,0.06-0.92-0.14C85.7,89.81,86.03,89.66,86.3,89.93z"/>
	<path class="st36" d="M80.42,143.83c0.02-0.31-0.1-0.64,0.16-0.9C80.54,143.23,80.7,143.57,80.42,143.83z"/>
	<path class="st36" d="M92.4,144.91c-0.28-0.25-0.15-0.58-0.16-0.89C92.51,144.28,92.36,144.61,92.4,144.91z"/>
	<path class="st36" d="M125.7,144.91c-0.28-0.25-0.15-0.58-0.16-0.89C125.82,144.28,125.66,144.61,125.7,144.91z"/>
	<path class="st36" d="M82.19,89.94c-0.24,0-0.47-0.01-0.71-0.01c0.27-0.26,0.61-0.12,0.92-0.14
		C82.34,89.84,82.27,89.89,82.19,89.94z"/>
	<path class="st37" d="M116.57,109.47c-0.26-0.25-0.14-0.6-0.23-0.89C116.73,108.8,116.52,109.17,116.57,109.47z"/>
	<path class="st42" d="M89.54,92.62c0.66,0.24,1.31,0.49,1.97,0.73c1.21,0.54,2.17,1.48,3.4,1.99c0.45,0.49,1.07,0.72,1.61,1.07
		c0.93,0.75,1.83,1.54,2.86,2.16c0.3,0.53,0.9,0.76,1.26,1.23c0.05,0.17,0,0.25-0.18,0.18c-0.47-0.18-0.87-0.55-1.41-0.55
		c-1.26-0.28-2.4-0.93-3.64-1.28c-0.73-0.28-1.48-0.48-2.24-0.64c-1.03-0.29-2.09-0.43-3.14-0.59c-1.01-0.13-2.02-0.22-3.03-0.27
		c-2.46-0.07-4.9,0.19-7.32,0.61c-0.88,0.13-1.73,0.38-2.58,0.61c-0.43,0.12-0.8,0.35-0.67,0.87c0.12,0.48,0.55,0.46,0.95,0.42
		c0.35-0.04,0.68-0.19,1.02-0.28c2.49-0.56,5-0.98,7.56-0.95c0.69,0,1.37-0.05,2.05,0.06c1.34,0.23,2.7,0.31,4.02,0.61
		c0.78,0.19,1.55,0.42,2.33,0.63c1.12,0.51,2.42,0.62,3.4,1.46c1.17,0.7,2.53,1.05,3.58,1.96c0.54,0.3,1.07,0.6,1.61,0.9
		c0.45,0.28,0.88,0.6,1.34,0.85c0.56,0.3,0.47,0.52-0.04,0.74c-1.27,0.54-2.54,1.08-3.82,1.62c-1.13,0.36-2.27,0.73-3.4,1.09
		c-1.73,0.3-3.46,0.59-5.19,0.89c-1.19-0.06-2.38-0.12-3.57-0.18c-0.9-0.18-1.8-0.36-2.7-0.54c-1.2-0.41-2.39-0.83-3.59-1.24
		c-0.52-0.28-1.03-0.57-1.61-0.72c-2-1.03-3.99-2.06-5.99-3.08c-0.33-0.17-0.57-0.4-0.79-0.68c-1.06-0.69-2.08-1.43-3.23-1.97
		c-0.49-0.31-0.58-0.56-0.13-1.08c1.31-1.54,2.77-2.92,4.25-4.28c1.15-0.89,2.33-1.69,3.69-2.24c1.02-0.41,2.1-0.58,3.11-0.98
		C84.1,91.61,86.87,91.64,89.54,92.62z"/>
	<path class="st42" d="M128.76,64.18c0.9-0.24,1.79-0.48,2.69-0.71c2.07-0.3,4.16-0.19,6.24-0.18c0.99,0.01,1.09,0.14,0.86,1.1
		c-1.13,4.73-2.1,9.51-4.06,14.01c-1,2.29-2.28,4.37-3.93,6.24c-3.43,3.9-8.01,5.94-12.77,7.85c0.04-1.33,0.52-2.48,0.8-3.66
		c0.93-3.86,2.55-7.43,4.67-10.75c1.73-2.71,4.08-4.86,6.6-6.85c1.03-0.81,2.04-1.62,3.2-2.23c0.59-0.31,0.7-0.84,0.42-1.36
		c-0.3-0.56-0.85-0.52-1.33-0.22c-1.72,1.06-3.4,2.15-4.9,3.53c-2.09,1.92-4.11,3.9-5.64,6.29c-1.78,2.79-3.16,5.79-4.16,8.96
		c-0.49-0.35-0.23-0.82-0.18-1.25c0-0.53,0.01-1.07,0.01-1.6c0.25-1.3,0.45-2.6,0.55-3.92c0.43-1.56,0.77-3.14,1.31-4.67
		C120.88,69.85,123.82,66.11,128.76,64.18z"/>
	<path class="st43" d="M117.28,84.93c0.1,0.41-0.16,0.88,0.18,1.25c0.02,0.33-0.06,0.63-0.34,0.99
		C117.17,86.35,116.94,85.63,117.28,84.93z"/>
	<path class="st4" d="M72.7,67.42c-0.77-1.09-1.58-2.14-2.47-3.14c-0.03-0.08-0.05-0.18-0.1-0.24c-0.97-1.23-0.97-1.31,0.36-2.13
		c0.96-0.59,1.95-1.12,2.93-1.68c1.39-1.04,3.05-1.44,4.67-1.92c0.51-0.15,1.04-0.25,1.55-0.41c1.84-0.33,3.7-0.54,5.57-0.61
		c1.43,0.17,2.89,0.13,4.31,0.42c0.37,0.12,0.75,0.16,1.13,0.2c0.09,0.01,0.19,0.04,0.28,0.07c0.86,0.22,1.75,0.37,2.59,0.69
		c0.61,0.23,0.79,0.61,0.48,1.18c-0.24,0.44-0.39,0.93-0.78,1.27c-0.99,2.23-1.75,4.53-2.1,6.95c-0.16,0.3,0.01,0.65-0.14,0.95
		c-0.36,0.57-0.17,1.19-0.21,1.8c0.19,0.23,0.13,0.51,0.12,0.77c-0.1,2.03-0.01,4.05,0.3,6.06c0.02,0.35-0.02,0.7,0.11,1.04
		c0.04,0.48,0.31,0.95,0.05,1.44c-0.03,0.15-0.02,0.33-0.21,0.39c-2.08,0.01-4.1-0.33-6.08-0.94c-1.32-0.43-2.34-1.4-3.57-1.98
		c-1.46-1.1-2.76-2.36-3.94-3.75c-0.84-1.13-1.67-2.26-2.51-3.39C74.34,69.36,73.53,68.38,72.7,67.42z"/>
	<path class="st4" d="M83.78,44.85c0.83,0.42,1.67,0.82,2.49,1.26c0.34,0.19,0.64,0.46,0.96,0.69c0.48,0.47,1.41,0.64,1.49,1.26
		c0.07,0.54-0.52,1.14-0.78,1.73c-0.54,1.27-1.06,2.55-1.59,3.82c0.12,0.83-0.15,1.56-0.59,2.24c-0.62,0.3-1.32,0.02-1.95,0.27
		c-1.06,0.1-2.13,0.09-3.18,0.35c-1.43,0.21-2.83,0.55-4.21,0.99c-0.58,0.18-1.13,0.21-1.19-0.64c-0.7-2.52-1.24-5.07-1.08-7.7
		c0.1-1.66,0.32-3.3,0.77-4.91c0.14-0.49,0.35-0.64,0.85-0.65c2.64-0.06,5.21,0.25,7.67,1.25C83.53,44.85,83.66,44.84,83.78,44.85z"
		/>
	<path class="st44" d="M75.22,56.81c0.21,0.53,0.5,0.61,1.08,0.42c1.39-0.44,2.79-0.92,4.28-0.95c0.47,0.16,0.16,0.44,0.06,0.64
		c-0.26,0.5-0.69,0.86-1.11,1.22c-2.1,0.5-4.12,1.24-6.11,2.07c0.39-0.59,0.73-1.22,1.19-1.75C75.05,57.97,75.26,57.45,75.22,56.81z
		"/>
	<path class="st45" d="M102.23,140.67c0.09,0.65-0.12,1.2-0.32,1.76c-0.11,0.33-0.36,0.48-0.67,0.48c-0.27,0-0.49-0.14-0.62-0.42
		c-0.49-1.08-0.48-2.17-0.09-3.27c0.12-0.33,0.39-0.55,0.74-0.54c0.36,0,0.6,0.23,0.73,0.56
		C102.18,139.71,102.31,140.19,102.23,140.67z"/>
	<path class="st46" d="M101.72,146.71c0.44,0.05,1.06-0.12,1.62,0.18c0.64,0.34,0.69,0.87,0.04,1.2c-1.09,0.57-2.24,0.57-3.37,0.14
		c-0.34-0.13-0.7-0.42-0.57-0.9c0.12-0.42,0.46-0.61,0.89-0.62C100.74,146.7,101.16,146.71,101.72,146.71z"/>
	<path class="st0" d="M110.84,141.97c0,0.51,0.02,1.01,0,1.51c-0.04,0.82-0.6,1.24-1.29,1.38c-0.7,0.14-0.96-0.46-1.12-1.02
		c-0.37-1.25-0.38-2.51-0.12-3.78c0.13-0.65,0.26-1.34,1.1-1.4c0.6-0.04,1.36,0.81,1.42,1.61
		C110.88,140.84,110.84,141.4,110.84,141.97C110.84,141.97,110.84,141.97,110.84,141.97z"/>
	<path class="st4" d="M105.49,57.37c0.24,0.66,0.47,1.31,0.71,1.97c0.83,3.5,0.77,6.96-0.41,10.37c-0.67,1.76-1.56,3.38-2.79,4.82
		c-0.62,0.73-1.33,1.36-2.01,2.02c-2.08,1.56-4.2,3.02-6.84,3.54c-0.77,0.15-1.13,0.05-1.22-0.75c-0.02-0.23-0.12-0.45-0.18-0.68
		c-0.49-0.52-0.42-1.18-0.43-1.82c0.03-0.48,0-0.95-0.15-1.41c-0.15-1.88-0.07-3.75,0.14-5.62c0.05-0.42,0.3-0.78,0.4-1.18
		c0.13-1.85,0.88-3.52,1.47-5.23c1.06-3.06,2.79-5.73,4.84-8.22c0.76-0.92,1.53-1.8,2.4-2.6c0.23-0.21,0.43-0.53,0.83-0.42
		C103.51,53.8,104.6,55.52,105.49,57.37z"/>
	<path class="st4" d="M94.37,43.03c0.31-0.3,0.54-0.42,0.88,0.04c0.67,0.92,1.43,1.78,2.15,2.67c1,1.76,2.36,3.25,3.6,4.83
		c-0.29,0.3-0.59,0.6-0.88,0.91c-0.47,0.77-1.18,1.33-1.77,2c-0.96,1.11-1.79,2.31-2.62,3.5c-0.41,0.59-0.85,0.73-1.52,0.5
		c-0.76-0.26-1.52-0.54-2.33-0.58c-1.33-0.09-2.59-0.6-3.91-0.74c-0.48-0.05-0.63-0.39-0.53-0.84c0.11-0.49,0.34-0.95,0.41-1.45
		c0.11-0.55,0.22-1.1,0.57-1.56c0.29-0.53,0.59-1.06,0.92-1.56c1.07-1.84,1.94-3.8,3.23-5.51C93.15,44.48,93.77,43.76,94.37,43.03z"
		/>
	<path class="st47" d="M92.55,77.06c0.07,0.54,0.14,1.07,0.22,1.61c-0.68,0.27-0.74,1.14-1.4,1.43c-0.11-0.47-0.28-0.92-0.25-1.42
		c-0.01-0.25,0.56-0.53-0.05-0.74c-0.03-0.01-0.03-0.11-0.06-0.16c-0.44-2.32-0.54-4.65-0.22-6.99c0.45-0.1,0.71-0.29,0.88-0.81
		c0.17-0.51,0.7-0.9,1.07-1.34c-0.33,2.31-0.38,4.63-0.32,6.95C92.63,76.07,92.22,76.6,92.55,77.06z"/>
	<path class="st48" d="M92.04,56.67c0.82,0.11,1.62,0.36,2.38,0.66c0.52,0.2,0.75,0.07,1.07-0.38c1.38-1.96,2.71-3.97,4.64-5.48
		c0.09,0.74-0.57,1.09-0.89,1.58c-1.28,1.96-2.7,3.84-4.06,5.75c-0.5,0.7-1.01,1.38-1.5,2.09c-0.12,0.17-0.26,0.23-0.45,0.22
		c0.21-0.49,0.39-1,0.65-1.46c0.24-0.43,0.17-0.62-0.31-0.74c-0.94-0.25-1.87-0.54-2.8-0.81C91.14,57.57,91.44,56.99,92.04,56.67z"
		/>
	<path class="st47" d="M90.99,69c-0.02-0.32-0.06-0.65,0.14-0.94C91.11,68.37,91.26,68.72,90.99,69z"/>
	<path class="st0" d="M85.24,141.63c0,0.71-0.01,1.34,0,1.96c0.01,0.45-0.28,0.7-0.63,0.89c-0.26,0.14-0.53,0.09-0.72-0.15
		c-0.24-0.32-0.36-0.68-0.15-1.08C84.07,142.59,84.32,141.87,85.24,141.63z"/>
	<path class="st49" d="M88.65,52.37c-0.33,0.42-0.42,0.93-0.57,1.41c-0.61,1.15-1.4,2.18-2.15,3.23c-0.18,0.26-0.39,0.43-0.69,0.5
		c-1.92,0.1-3.82,0.34-5.72,0.63c0.12-0.44,0.51-0.69,0.74-1.06c0.15-0.25,0.53-0.42,0.31-0.81c1.04-0.38,2.12-0.37,3.2-0.36
		c0.64-0.25,1.36,0.15,1.98-0.22c0.1-0.73,0.34-1.41,0.59-2.09c0.25,0.1,0.29,0.35,0.41,0.6c0.17-0.25,0.25-0.48,0.32-0.76
		c0.08-0.31-0.06-0.97,0.67-0.86c0.44,0.07,0.25-0.49,0.53-0.6C88.5,52.03,88.74,52.04,88.65,52.37z"/>
	<path class="st50" d="M88.65,52.37c-0.12-0.13-0.25-0.25-0.37-0.38c-0.04-0.11-0.13-0.31-0.12-0.32c0.47-0.22,0.53-0.97,1.19-0.94
		C89.12,51.29,88.88,51.83,88.65,52.37z"/>
	<path class="st0" d="M119.43,141.82c0.03,0.8-0.01,1.6-0.17,2.39c-0.12,0.59-0.42,1.01-1.04,1.03c-0.62,0.02-0.99-0.36-1.11-0.95
		c-0.32-1.59-0.27-3.18,0.03-4.76c0.1-0.51,0.47-0.84,1-0.86c0.53-0.02,0.87,0.29,1.07,0.78
		C119.53,140.22,119.41,141.03,119.43,141.82z"/>
	<path class="st24" d="M95.46,98c1.27,0.3,2.47,0.77,3.59,1.43c-0.9-0.05-0.83,0.87-1.28,1.26c-1.13-0.42-2.27-0.84-3.4-1.26
		C94.36,98.69,94.71,98.23,95.46,98z"/>
	<path class="st51" d="M100.46,99.98c0.06-0.06,0.12-0.12,0.18-0.18c0.15,0.12,0.3,0.25,0.53,0.44
		C100.79,100.31,100.62,100.14,100.46,99.98z"/>
	<path class="st9" d="M79.51,97.11c0.86-0.17,1.7-0.43,2.57-0.5c1.64-0.14,3.29-0.32,4.95-0.19c0.07,0.85-0.66,1.21-1.07,1.76
		c-2.36,0.04-4.69,0.31-6.98,0.87c-0.23,0.06-0.47,0.03-0.7,0.05c-0.48-0.15-0.18-0.44-0.07-0.62
		C78.53,97.92,78.92,97.42,79.51,97.11z"/>
	<path class="st22" d="M92.05,98.88c-1.07-0.17-2.14-0.34-3.21-0.51c-0.25-0.04-0.54,0.06-0.75-0.17c0.02-1.17,0.67-1.65,1.99-1.45
		c1.1,0.01,2.15,0.28,3.21,0.55C93.27,98.13,92.78,98.6,92.05,98.88z"/>
	<path class="st14" d="M79.51,97.11c-0.33,0.41-0.67,0.81-0.98,1.24c-0.15,0.21-0.49,0.39-0.26,0.74c-0.38,0.28-0.8,0.35-1.26,0.35
		c-0.48,0.01-0.82-0.18-0.89-0.68c-0.07-0.5,0.11-0.93,0.62-1.05C77.66,97.51,78.55,97.16,79.51,97.11z"/>
	<path class="st28" d="M92.05,98.88c0.53-0.43,0.94-0.96,1.24-1.58c0.74,0.19,1.49,0.3,2.16,0.7c-0.51,0.37-0.85,0.86-1.09,1.44
		C93.6,99.25,92.83,99.06,92.05,98.88z"/>
	<path class="st7" d="M90.08,96.75c-1.14-0.17-1.6,0.59-1.99,1.45c-0.71-0.01-1.43-0.02-2.14-0.03c0.11-0.73,0.87-1.08,1.07-1.76
		C88.06,96.4,89.08,96.5,90.08,96.75z"/>
	<path class="st50" d="M85.24,57.52c0.78-0.95,1.5-1.94,2.16-2.98c0.18-0.29,0.27-0.66,0.68-0.75c-0.14,0.57-0.27,1.14-0.44,1.7
		c-0.09,0.3-0.06,0.46,0.28,0.46c1.41,0.01,2.72,0.62,4.12,0.73c-0.41,0.49-0.61,1.16-1.26,1.43c0,0,0.01,0,0.01,0
		c-0.34-0.25-0.76,0.02-1.11-0.18C88.2,57.79,86.72,57.65,85.24,57.52z"/>
	<path class="st52" d="M91,77.78c0.23,0.28,0.85,0.5,0.11,0.9C90.95,78.4,90.98,78.09,91,77.78z"/>
	<path class="st48" d="M89.67,57.92c0.37,0.04,0.79-0.17,1.11,0.18C90.41,58.06,90.01,58.16,89.67,57.92z"/>
	<path class="st50" d="M85.76,55.71c0,0.21-0.06,0.3-0.31,0.27c-0.56-0.05-1.12-0.04-1.67-0.05C84.41,55.63,85.11,55.95,85.76,55.71
		z"/>
	<path class="st52" d="M92.55,77.06c-0.86,0.12,0.09-0.65-0.36-0.73c0.17-0.21,0.23-0.46,0.23-0.73
		C92.64,76.07,92.56,76.57,92.55,77.06z"/>
	<path class="st48" d="M89.48,57.66c0.06-0.26-0.02-0.55,0.32-0.62c0.11-0.02,0.24,0.05,0.23,0.19
		C90.03,57.57,89.79,57.63,89.48,57.66z"/>
</g>
</svg>
