<?xml version="1.0" encoding="utf-8"?>
<!-- Generator: Adobe Illustrator 26.0.3, SVG Export Plug-In . SVG Version: 6.00 Build 0)  -->
<svg version="1.1" id="Layer_1" xmlns="http://www.w3.org/2000/svg" xmlns:xlink="http://www.w3.org/1999/xlink" x="0px" y="0px"
	 viewBox="0 0 150 150" style="enable-background:new 0 0 150 150;" xml:space="preserve">
<style type="text/css">
	.st0{fill:#FFFFFF;}
</style>
<g>
	<path class="st0" d="M2,1c48.66,0,97.33,0,146,0c0,48.99,0,97.99,0,147c-48.66,0-97.33,0-146,0C2,99.01,2,50.01,2,1z M85.58,80.21
		c-0.94-0.66-1.74-1.19-2.51-1.77c-1.26-0.96-2.56-1.9-3.74-2.96c-1.87-1.69-3.56-3.57-5.48-5.18c-2.2-1.85-4.72-3.22-7.5-4.05
		c-4.08-1.21-7.87-0.61-11.37,1.81c-1.84,1.27-3.25,2.96-4.56,4.74c-0.5,0.68-0.47,0.98,0.28,1.41c2.85,1.64,5.65,3.35,8.58,4.84
		c4.84,2.47,9.88,2.88,15.03,0.94c1.6-0.6,3.17-1.29,4.76-1.9c0.29-0.11,0.75-0.15,0.98,0c1.88,1.27,3.73,2.59,5.58,3.92
		c0.2,0.15,0.42,0.4,0.46,0.63c0.36,2.26,0.69,4.53,1,6.8c0.02,0.17-0.1,0.45-0.25,0.55c-0.48,0.33-0.97,0.65-1.5,0.89
		c-4.04,1.84-8.27,2.69-12.72,2.48c-4.22-0.2-8.21-1.16-11.88-3.34c-2.1-1.24-4.13-2.57-5.88-4.28c-6.28-6.17-9.14-13.65-8.43-22.45
		c0.31-3.91,1.51-7.57,3.4-11c0.22-0.39,0.49-0.76,0.68-1.17c0.19-0.41,0.14-0.83-0.29-1.05c-0.43-0.22-0.79-0.01-1.01,0.39
		c-0.15,0.27-0.27,0.57-0.42,0.84c-3.58,6.27-4.66,12.97-3.35,20.05c0.78,4.18,2.48,7.97,4.97,11.42c2.41,3.33,5.41,6.05,8.91,8.14
		c5.15,3.08,10.78,4.3,16.77,3.8c4.89-0.41,9.41-1.83,13.47-4.66c3.08-2.15,5.79-4.64,7.94-7.72c3.72-5.33,5.37-11.28,5.14-17.76
		c-0.02-0.52,0.11-1.2-0.71-1.2c-0.83,0.01-0.67,0.7-0.66,1.21c0.06,2.87-0.19,5.71-0.97,8.48c-1.84,6.54-5.57,11.72-11.19,15.54
		c-0.17,0.12-0.36,0.2-0.43,0.23c-0.74-3.71-1.48-7.37-2.2-11.02c-0.06-0.3-0.03-0.63,0.02-0.94c0.33-2.29,0.69-4.58,1.02-6.87
		c0.08-0.53,0.34-0.8,0.84-1.01c1.78-0.75,3.57-1.5,5.29-2.38c4.01-2.05,6.79-5.25,8.5-9.4c1.52-3.68,2.33-7.56,3.16-11.43
		c0.13-0.61-0.16-0.97-0.83-1.05c-0.76-0.09-1.52-0.16-2.28-0.22c-2.4-0.19-4.72,0.17-6.94,1.07c-3.35,1.36-5.56,3.86-6.98,7.14
		c-1.98,4.56-2.36,9.35-2.05,14.22c0.15,2.44-0.5,4.74-0.82,7.1c-0.58-1.36-1.05-2.74-1.6-4.09c-1.77-4.31-4.1-8.3-6.73-12.14
		c-0.8-1.16-0.76-0.86,0.15-1.78c4.53-4.56,5.19-12.21,1.41-17.36c-2.29-3.12-4.68-6.15-7.04-9.22c-0.52-0.67-0.9-0.74-1.49-0.1
		c-0.96,1.06-1.86,2.19-2.74,3.32c-0.57,0.73-0.49,0.68-1.28,0.27c-1.61-0.84-3.22-1.69-4.91-2.35c-1.81-0.7-3.75-0.66-5.67-0.59
		c-0.5,0.02-0.77,0.27-0.92,0.74c-1.12,3.58-1.22,7.16,0.07,10.73c0.19,0.52,0.03,0.74-0.43,1c-1.28,0.71-2.54,1.45-3.76,2.25
		c-0.83,0.54-0.84,0.85-0.24,1.64c2.17,2.84,4.34,5.68,6.52,8.51c4.24,5.5,12.06,6.91,17.95,3.24c0.18-0.11,0.37-0.21,0.58-0.33
		C80.18,64.59,83.65,71.94,85.58,80.21z M77.56,102.45c0.09-0.02,0.18-0.02,0.25-0.06c0.2-0.11,0.39-0.24,0.59-0.37
		c-0.22-0.1-0.43-0.26-0.66-0.29c-0.64-0.07-1.3-0.14-1.94-0.12c-0.53,0.02-1.1,0.07-1.56,0.29c-1.3,0.64-1.4,2.2-0.26,3.09
		c0.14,0.1,0.27,0.21,0.42,0.32c-1.3,1.24-1.3,1.24-0.66,2.35c-0.2,0.43-0.55,0.85-0.45,1.1c0.12,0.32,0.59,0.68,0.93,0.71
		c0.97,0.08,1.96,0.11,2.92-0.04c0.88-0.13,1.38-0.93,1.3-1.71c-0.07-0.69-0.58-1.12-1.54-1.24c-0.24-0.03-0.49-0.03-0.74-0.03
		c-0.36-0.01-0.73,0.05-1.07-0.03c-0.23-0.05-0.42-0.3-0.63-0.46c0.22-0.15,0.42-0.32,0.65-0.46c0.08-0.05,0.22-0.01,0.33-0.01
		C77.41,105.45,78.26,104.26,77.56,102.45z M84.69,106.86c-0.12-0.59-0.28-1.05-0.29-1.51c-0.03-1.78,0-3.55-0.03-5.33
		c0-0.24-0.19-0.66-0.32-0.68c-0.63-0.07-1.27-0.03-2.03-0.03c0.79,0.59,0.99,1.62,0.6,2.68c-0.1-0.04-0.2-0.08-0.3-0.13
		c-0.91-0.48-1.91-0.28-2.54,0.51c-0.88,1.11-0.88,3.06,0,4.17c0.65,0.81,1.75,0.93,2.56,0.26c0.1-0.08,0.21-0.14,0.18-0.12
		c0.28,0.2,0.49,0.47,0.68,0.46C83.73,107.1,84.26,106.95,84.69,106.86z M59.93,104.43c-0.06-0.01-0.12-0.03-0.18-0.04
		c-0.07,0.1-0.17,0.18-0.22,0.29c-0.79,1.75-1.1,1.95-2.95,1.9c-0.79-0.02-0.96-0.17-0.96-0.95c-0.01-1.51-0.01-3.01,0-4.52
		c0-0.36-0.06-0.76,0.09-1.06c0.14-0.28,0.52-0.45,0.81-0.69c-1.24,0-2.46,0-3.86,0c1.06,0.45,1.08,0.48,1.08,1.47
		c0,1.51,0.01,3.01,0,4.52c0,0.36,0.04,0.76-0.11,1.05c-0.14,0.27-0.51,0.41-0.78,0.61c0.03,0.02,0.07,0.07,0.1,0.07
		c2.09,0.01,4.18,0.02,6.27,0.01c0.14,0,0.39-0.15,0.41-0.25C59.76,106.04,59.84,105.23,59.93,104.43z M71.97,107.06
		c-0.11-0.53-0.25-0.96-0.27-1.41c-0.04-0.83-0.01-1.66-0.02-2.49c-0.01-0.63-0.24-1.15-0.82-1.44c-0.56-0.28-1.09-0.12-1.59,0.21
		c-0.14,0.1-0.28,0.2-0.43,0.3c-0.34-0.57-1.33-0.72-1.96-0.43c0.32,1.79,0.39,3.51-0.04,5.23c0.69,0,1.48,0,2.24,0
		c-0.14-0.36-0.33-0.66-0.35-0.97c-0.04-0.85-0.04-1.71,0-2.56c0.02-0.29,0.18-0.6,0.36-0.83c0.11-0.14,0.42-0.25,0.58-0.19
		c0.16,0.05,0.36,0.33,0.35,0.5c-0.06,1.35,0.35,2.75-0.32,4.08C70.51,107.06,71.28,107.06,71.97,107.06z M91.86,101.83
		c0.54,0.92,0.54,4.24-0.02,5.19c0.82,0,1.61,0,2.36,0c-0.13-0.37-0.32-0.67-0.33-0.98c-0.04-0.83-0.04-1.66,0-2.49
		c0.01-0.27,0.12-0.59,0.29-0.79c0.15-0.17,0.47-0.3,0.68-0.27c0.15,0.03,0.33,0.37,0.34,0.57c0.04,0.81,0.05,1.62,0.01,2.43
		c-0.02,0.51-0.15,1.01-0.24,1.53c0.67,0,1.47,0,2.13,0c-0.1-0.48-0.23-0.9-0.25-1.32c-0.04-0.87,0.02-1.75-0.03-2.63
		c-0.07-1.33-1.24-1.9-2.36-1.17c-0.16,0.11-0.32,0.22-0.48,0.33C93.63,101.67,92.87,101.54,91.86,101.83z M81.48,37.81
		c-0.16,0.15-0.52,0.34-0.56,0.58c-0.03,0.24,0.22,0.57,0.42,0.79c0.12,0.13,0.37,0.15,0.56,0.21c2.31,0.72,4.51,1.68,6.54,3.01
		c1.07,0.7,2.07,1.5,3.1,2.26c0.36,0.27,0.72,0.29,1.03-0.04c0.31-0.35,0.19-0.71-0.1-1.02c-0.06-0.07-0.13-0.12-0.2-0.18
		c-3.02-2.5-6.42-4.29-10.16-5.45C81.97,37.92,81.81,37.89,81.48,37.81z M65.4,106.67c-0.14-0.44-0.3-0.72-0.31-1
		c-0.04-0.83,0-1.66-0.02-2.49c-0.03-0.92-0.69-1.53-1.67-1.59c-1.27-0.07-2.49,0.55-2.58,1.37c-0.02,0.24,0.17,0.65,0.38,0.74
		c0.25,0.11,0.66,0.06,0.9-0.09c0.15-0.1,0.18-0.51,0.14-0.76c-0.04-0.26-0.38-0.58,0.05-0.72c0.28-0.09,0.74-0.03,0.95,0.15
		c0.48,0.42,0.23,1.43-0.33,1.75c-0.59,0.32-1.19,0.64-1.73,1.04c-0.57,0.42-0.69,1.19-0.37,1.69c0.34,0.52,0.99,0.63,1.68,0.25
		c0.31-0.17,0.59-0.38,0.88-0.57C64.19,107.49,64.74,107.51,65.4,106.67z M90.87,104.41c0-1.64-1.09-2.82-2.61-2.83
		c-1.41,0-2.52,1.25-2.51,2.85c0.01,1.63,1.07,2.8,2.54,2.81C89.81,107.25,90.87,106.08,90.87,104.41z"/>
	<path d="M85.58,80.21c-1.93-8.27-5.41-15.63-10.3-22.42c-0.2,0.12-0.4,0.21-0.58,0.33c-5.89,3.67-13.71,2.26-17.95-3.24
		c-2.18-2.83-4.35-5.67-6.52-8.51c-0.61-0.79-0.6-1.1,0.24-1.64c1.22-0.8,2.48-1.54,3.76-2.25c0.46-0.26,0.62-0.48,0.43-1
		c-1.28-3.56-1.19-7.14-0.07-10.73c0.15-0.47,0.42-0.72,0.92-0.74c1.92-0.07,3.86-0.11,5.67,0.59c1.69,0.66,3.3,1.51,4.91,2.35
		c0.78,0.41,0.71,0.46,1.28-0.27c0.88-1.13,1.78-2.26,2.74-3.32c0.58-0.64,0.97-0.57,1.49,0.1c2.36,3.07,4.75,6.1,7.04,9.22
		c3.78,5.16,3.13,12.81-1.41,17.36c-0.92,0.92-0.95,0.62-0.15,1.78c2.63,3.83,4.96,7.83,6.73,12.14c0.55,1.35,1.02,2.73,1.6,4.09
		c0.32-2.37,0.97-4.66,0.82-7.1c-0.31-4.86,0.07-9.66,2.05-14.22c1.42-3.27,3.63-5.77,6.98-7.14c2.22-0.9,4.54-1.26,6.94-1.07
		c0.76,0.06,1.52,0.13,2.28,0.22c0.67,0.08,0.96,0.44,0.83,1.05c-0.83,3.87-1.64,7.75-3.16,11.43c-1.71,4.16-4.49,7.35-8.5,9.4
		c-1.72,0.88-3.51,1.62-5.29,2.38c-0.5,0.21-0.76,0.47-0.84,1.01c-0.33,2.29-0.68,4.58-1.02,6.87c-0.04,0.31-0.08,0.64-0.02,0.94
		c0.72,3.66,1.46,7.31,2.2,11.02c0.07-0.04,0.26-0.12,0.43-0.23c5.62-3.82,9.35-9.01,11.19-15.54c0.78-2.77,1.03-5.61,0.97-8.48
		c-0.01-0.51-0.17-1.21,0.66-1.21c0.82-0.01,0.69,0.67,0.71,1.2c0.23,6.48-1.42,12.42-5.14,17.76c-2.15,3.08-4.86,5.57-7.94,7.72
		c-4.06,2.83-8.59,4.26-13.47,4.66c-5.99,0.5-11.62-0.72-16.77-3.8c-3.5-2.09-6.5-4.81-8.91-8.14c-2.49-3.45-4.19-7.24-4.97-11.42
		c-1.31-7.08-0.23-13.77,3.35-20.05c0.16-0.27,0.27-0.57,0.42-0.84c0.23-0.4,0.58-0.61,1.01-0.39c0.43,0.22,0.48,0.65,0.29,1.05
		c-0.19,0.41-0.46,0.77-0.68,1.17c-1.9,3.43-3.09,7.09-3.4,11c-0.7,8.79,2.15,16.27,8.43,22.45c1.74,1.71,3.78,3.04,5.88,4.28
		c3.67,2.18,7.66,3.14,11.88,3.34c4.45,0.21,8.68-0.64,12.72-2.48c0.53-0.24,1.02-0.56,1.5-0.89c0.14-0.1,0.27-0.37,0.25-0.55
		c-0.31-2.27-0.64-4.54-1-6.8c-0.04-0.23-0.26-0.48-0.46-0.63c-1.85-1.32-3.7-2.64-5.58-3.92c-0.23-0.15-0.69-0.12-0.98,0
		c-1.6,0.61-3.16,1.3-4.76,1.9c-5.14,1.94-10.18,1.53-15.03-0.94c-2.92-1.49-5.73-3.2-8.58-4.84c-0.75-0.43-0.78-0.73-0.28-1.41
		c1.3-1.79,2.71-3.47,4.56-4.74c3.51-2.42,7.3-3.02,11.37-1.81c2.78,0.83,5.3,2.2,7.5,4.05c1.92,1.61,3.61,3.5,5.48,5.18
		c1.18,1.06,2.47,2,3.74,2.96C83.84,79.03,84.65,79.55,85.58,80.21z"/>
	<path d="M77.56,102.45c0.69,1.81-0.15,3-2.13,3.04c-0.11,0-0.25-0.04-0.33,0.01c-0.23,0.13-0.44,0.3-0.65,0.46
		c0.21,0.16,0.4,0.4,0.63,0.46c0.34,0.08,0.71,0.02,1.07,0.03c0.25,0,0.5,0,0.74,0.03c0.95,0.13,1.47,0.55,1.54,1.24
		c0.08,0.78-0.42,1.58-1.3,1.71c-0.96,0.15-1.95,0.12-2.92,0.04c-0.34-0.03-0.81-0.39-0.93-0.71c-0.09-0.24,0.26-0.66,0.45-1.1
		c-0.64-1.11-0.64-1.11,0.66-2.35c-0.14-0.11-0.28-0.21-0.42-0.32c-1.15-0.89-1.05-2.45,0.26-3.09c0.46-0.23,1.03-0.27,1.56-0.29
		c0.65-0.02,1.3,0.05,1.94,0.12c0.23,0.03,0.44,0.19,0.66,0.29c-0.2,0.12-0.39,0.25-0.59,0.37
		C77.74,102.42,77.65,102.43,77.56,102.45z M76.31,103.48c-0.04-0.22-0.08-0.63-0.21-1c-0.07-0.19-0.34-0.44-0.5-0.43
		c-0.22,0.02-0.55,0.24-0.59,0.42c-0.12,0.58-0.2,1.2-0.13,1.78c0.03,0.29,0.4,0.71,0.68,0.76c0.48,0.08,0.63-0.39,0.7-0.81
		C76.29,104.02,76.29,103.84,76.31,103.48z M75.69,109.35c0.44-0.1,0.87-0.14,1.25-0.3c0.21-0.08,0.48-0.37,0.47-0.55
		c-0.01-0.18-0.32-0.48-0.52-0.49c-0.73-0.07-1.47-0.07-2.2-0.02c-0.18,0.01-0.46,0.28-0.48,0.46c-0.03,0.18,0.16,0.49,0.33,0.57
		C74.9,109.19,75.3,109.24,75.69,109.35z"/>
	<path d="M84.69,106.86c-0.43,0.09-0.95,0.24-1.48,0.28c-0.19,0.01-0.39-0.26-0.68-0.46c0.03-0.02-0.08,0.04-0.18,0.12
		c-0.81,0.66-1.92,0.55-2.56-0.26c-0.88-1.1-0.88-3.06,0-4.17c0.63-0.79,1.62-0.99,2.54-0.51c0.09,0.05,0.2,0.08,0.3,0.13
		c0.39-1.05,0.19-2.08-0.6-2.68c0.76,0,1.4-0.04,2.03,0.03c0.14,0.02,0.32,0.44,0.32,0.68c0.03,1.78,0,3.55,0.03,5.33
		C84.41,105.81,84.57,106.27,84.69,106.86z M82.77,104.35c0.04-0.01,0.08-0.02,0.12-0.02c-0.13-0.58-0.18-1.19-0.41-1.72
		c-0.12-0.27-0.6-0.58-0.87-0.54c-0.27,0.04-0.65,0.48-0.68,0.77c-0.08,0.95-0.07,1.91-0.01,2.86c0.03,0.45,0.33,0.91,0.87,0.84
		c0.56-0.06,0.91-0.46,0.97-1.04C82.8,105.12,82.77,104.73,82.77,104.35z"/>
	<path d="M59.93,104.43c-0.1,0.8-0.18,1.61-0.31,2.41c-0.02,0.11-0.27,0.25-0.41,0.25c-2.09,0.01-4.18,0-6.27-0.01
		c-0.03,0-0.07-0.05-0.1-0.07c0.27-0.2,0.64-0.34,0.78-0.61c0.15-0.29,0.11-0.7,0.11-1.05c0.01-1.51,0.01-3.01,0-4.52
		c0-0.99-0.02-1.02-1.08-1.47c1.4,0,2.62,0,3.86,0c-0.29,0.23-0.66,0.4-0.81,0.69c-0.15,0.29-0.09,0.7-0.09,1.06
		c-0.01,1.51-0.01,3.01,0,4.52c0.01,0.78,0.17,0.93,0.96,0.95c1.85,0.05,2.16-0.16,2.95-1.9c0.05-0.11,0.14-0.19,0.22-0.29
		C59.82,104.4,59.87,104.41,59.93,104.43z"/>
	<path d="M71.97,107.06c-0.69,0-1.47,0-2.26,0c0.67-1.34,0.26-2.73,0.32-4.08c0.01-0.17-0.19-0.45-0.35-0.5
		c-0.16-0.05-0.47,0.05-0.58,0.19c-0.18,0.23-0.35,0.54-0.36,0.83c-0.05,0.85-0.05,1.71,0,2.56c0.02,0.31,0.21,0.61,0.35,0.97
		c-0.76,0-1.54,0-2.24,0c0.43-1.72,0.36-3.44,0.04-5.23c0.63-0.29,1.62-0.14,1.96,0.43c0.14-0.1,0.28-0.2,0.43-0.3
		c0.49-0.33,1.02-0.5,1.59-0.21c0.58,0.29,0.82,0.81,0.82,1.44c0.01,0.83-0.02,1.66,0.02,2.49
		C71.73,106.1,71.87,106.54,71.97,107.06z"/>
	<path d="M91.86,101.83c1.01-0.3,1.78-0.17,2.1,0.4c0.16-0.11,0.32-0.23,0.48-0.33c1.12-0.73,2.29-0.16,2.36,1.17
		c0.05,0.87-0.01,1.75,0.03,2.63c0.02,0.42,0.16,0.84,0.25,1.32c-0.66,0-1.46,0-2.13,0c0.09-0.52,0.22-1.02,0.24-1.53
		c0.04-0.81,0.03-1.62-0.01-2.43c-0.01-0.21-0.19-0.55-0.34-0.57c-0.21-0.04-0.54,0.09-0.68,0.27c-0.17,0.2-0.28,0.52-0.29,0.79
		c-0.04,0.83-0.04,1.66,0,2.49c0.02,0.31,0.2,0.61,0.33,0.98c-0.75,0-1.54,0-2.36,0C92.4,106.07,92.4,102.76,91.86,101.83z"/>
	<path d="M81.48,37.81c0.33,0.08,0.48,0.11,0.63,0.15c3.74,1.16,7.14,2.95,10.16,5.45c0.07,0.06,0.14,0.11,0.2,0.18
		c0.29,0.31,0.41,0.67,0.1,1.02c-0.3,0.34-0.67,0.31-1.03,0.04c-1.03-0.76-2.04-1.56-3.1-2.26c-2.02-1.33-4.23-2.28-6.54-3.01
		c-0.19-0.06-0.45-0.08-0.56-0.21c-0.2-0.23-0.45-0.55-0.42-0.79C80.96,38.16,81.33,37.97,81.48,37.81z"/>
	<path d="M65.4,106.67c-0.66,0.84-1.21,0.82-2.03-0.23c-0.29,0.19-0.57,0.41-0.88,0.57c-0.69,0.37-1.35,0.27-1.68-0.25
		c-0.32-0.5-0.2-1.26,0.37-1.69c0.54-0.4,1.14-0.72,1.73-1.04c0.56-0.31,0.81-1.33,0.33-1.75c-0.21-0.18-0.67-0.24-0.95-0.15
		c-0.43,0.13-0.09,0.45-0.05,0.72c0.04,0.25,0.01,0.66-0.14,0.76c-0.24,0.15-0.66,0.2-0.9,0.09c-0.21-0.1-0.4-0.5-0.38-0.74
		c0.08-0.82,1.31-1.44,2.58-1.37c0.98,0.06,1.64,0.67,1.67,1.59c0.02,0.83-0.02,1.66,0.02,2.49
		C65.1,105.95,65.26,106.23,65.4,106.67z M63.44,104.33c-0.09-0.05-0.17-0.09-0.26-0.14c-0.29,0.39-0.66,0.75-0.83,1.19
		c-0.08,0.22,0.21,0.58,0.34,0.87c0.25-0.2,0.64-0.36,0.72-0.61C63.53,105.24,63.44,104.77,63.44,104.33z"/>
	<path d="M90.87,104.41c0,1.67-1.06,2.84-2.58,2.83c-1.47-0.01-2.53-1.18-2.54-2.81c-0.01-1.6,1.1-2.85,2.51-2.85
		C89.78,101.59,90.87,102.77,90.87,104.41z M89.32,104.34c-0.07-0.56-0.06-1.16-0.24-1.71c-0.08-0.26-0.5-0.58-0.77-0.58
		c-0.26,0-0.72,0.37-0.74,0.6c-0.08,1.15-0.1,2.32-0.02,3.47c0.02,0.25,0.51,0.64,0.77,0.64c0.27,0,0.66-0.38,0.76-0.67
		C89.25,105.55,89.25,104.95,89.32,104.34z"/>
	<path class="st0" d="M76.31,103.48c-0.03,0.36-0.03,0.54-0.06,0.72c-0.07,0.42-0.22,0.89-0.7,0.81c-0.27-0.05-0.64-0.47-0.68-0.76
		c-0.07-0.58,0.01-1.2,0.13-1.78c0.04-0.18,0.38-0.4,0.59-0.42c0.16-0.01,0.43,0.24,0.5,0.43
		C76.24,102.85,76.27,103.26,76.31,103.48z"/>
	<path class="st0" d="M75.69,109.35c-0.39-0.1-0.79-0.16-1.14-0.33c-0.17-0.08-0.36-0.4-0.33-0.57c0.03-0.18,0.3-0.45,0.48-0.46
		c0.73-0.04,1.47-0.04,2.2,0.02c0.2,0.02,0.51,0.31,0.52,0.49c0.01,0.18-0.26,0.46-0.47,0.55
		C76.56,109.21,76.13,109.25,75.69,109.35z"/>
	<path class="st0" d="M82.77,104.35c0,0.38,0.03,0.76-0.01,1.14c-0.06,0.58-0.41,0.98-0.97,1.04c-0.55,0.06-0.84-0.39-0.87-0.84
		c-0.07-0.95-0.08-1.91,0.01-2.86c0.03-0.29,0.41-0.73,0.68-0.77c0.27-0.04,0.75,0.27,0.87,0.54c0.24,0.53,0.28,1.14,0.41,1.72
		C82.85,104.34,82.81,104.34,82.77,104.35z"/>
	<path class="st0" d="M63.44,104.33c0,0.44,0.09,0.91-0.03,1.31c-0.08,0.25-0.47,0.41-0.72,0.61c-0.12-0.29-0.42-0.65-0.34-0.87
		c0.17-0.44,0.54-0.8,0.83-1.19C63.26,104.24,63.35,104.29,63.44,104.33z"/>
	<path class="st0" d="M89.32,104.34c-0.07,0.6-0.06,1.21-0.24,1.75c-0.09,0.29-0.49,0.67-0.76,0.67c-0.27,0-0.75-0.39-0.77-0.64
		c-0.08-1.15-0.06-2.32,0.02-3.47c0.02-0.23,0.48-0.6,0.74-0.6c0.26,0,0.68,0.32,0.77,0.58C89.25,103.18,89.25,103.78,89.32,104.34z
		"/>
</g>
</svg>
