<?xml version="1.0" encoding="utf-8"?>
<!-- Generator: Adobe Illustrator 26.0.3, SVG Export Plug-In . SVG Version: 6.00 Build 0)  -->
<svg version="1.1" id="Layer_1" xmlns="http://www.w3.org/2000/svg" xmlns:xlink="http://www.w3.org/1999/xlink" x="0px" y="0px"
	 viewBox="0 0 150 150" style="enable-background:new 0 0 150 150;" xml:space="preserve">
<style type="text/css">
	.st0{fill:#FFFFFF;}
</style>
<g>
	<path class="st0" d="M150.32,150.1c-50.14,0-100.23,0-150.32,0C0,100.08,0,50.05,0,0c50.1,0,100.21,0,150.32,0
		C150.32,50.02,150.32,100.06,150.32,150.1z M74.05,71.08c-2.97,0.64-5.76,1.61-8.07,3.67c1.15,2.84,2.88,5.23,5.07,7.31
		c-2.21,1.98-4.09,4.08-5.05,6.88c1.9,1.47,3.92,2.65,6.17,3.41c1.5,0.51,3.03,0.9,4.62,0.76c3.13-0.29,5.83-1.59,8.09-3.73
		c1.92-1.82,3.4-4.5,1.39-7.2c0.28-1.04,0.58-1.93,0.75-2.84c0.12-0.62,0.57-1.21,1.2-1.35c0.92-0.19,1.83-0.4,2.82-0.62
		c1.59,1.49,2.72,1.97,4.77,1.6c4.2-0.76,7.31-3.01,8.94-7.04c0.88-2.19,1.17-4.52,1.06-6.87c-0.06-1.37-0.42-2.72-0.68-4.28
		c-1.97,0.33-3.77,0.57-5.54,0.96c-1.79,0.39-3.42,1.2-4.92,2.22c-0.06-0.05-0.08-0.06-0.09-0.08c-0.13-0.27-0.27-0.54-0.39-0.81
		c-1.2-2.5-2.76-4.7-5-6.38c-0.37-0.28-0.64-0.33-1,0.03c-0.75,0.75-1.62,1.4-2.3,2.21c-1.12,1.34-2.12,2.77-3.2,4.19
		c-0.54-0.21-1.18-0.48-1.83-0.71c-1.98-0.69-4.01-1.1-6.12-1.01c-0.38,0.01-0.72,0.04-0.8,0.55c-0.33,1.94-0.56,3.89-0.34,5.86
		C73.71,68.88,73.89,69.94,74.05,71.08z M104.57,57.85c-1.31-12.04-11.4-24.82-27.33-26.31c-15.33-1.43-30.45,9.43-32.86,26.39
		c-2.03,14.22,6.85,27.86,19.74,32.51c0.11-0.28,0.22-0.56,0.32-0.84C50.08,84.19,42.23,68.7,45.99,54.72
		c3.41-12.68,14.51-22.35,28.86-22.3c13.81,0.05,26.61,10.24,28.86,25.46c0.04,0.01,0.08,0.04,0.13,0.04
		C104.06,57.9,104.29,57.88,104.57,57.85z M85.41,105.8c-0.15-0.45-0.36-0.79-0.37-1.14c-0.05-0.99-0.02-1.99-0.02-2.98
		c0-1.33,0-2.67,0-3.99c-0.92,0-1.76,0-2.49,0c0.22,0.25,0.62,0.48,0.66,0.76c0.09,0.81,0.03,1.64,0.03,2.51
		c-1.24-0.93-2.33-0.84-3.1,0.21c-0.81,1.1-0.85,3.02-0.08,4.13c0.71,1.04,1.92,1.18,2.85,0.33c0.08-0.07,0.17-0.14,0.28-0.24
		c0.04,0.3,0.08,0.53,0.11,0.79C84.07,106.04,84.81,105.91,85.41,105.8z M77.62,101.1c0.44-0.02,0.75-0.03,1.1-0.05
		c0-0.22,0-0.41,0-0.6c-1.11-0.07-2.19-0.16-3.27-0.18c-1.12-0.02-2.02,0.63-2.29,1.56c-0.27,0.93,0.09,1.63,1.18,2.31
		c0.03,0.02,0.05,0.06,0.08,0.09c-1.46,1.17-1.54,1.57-0.65,2.57c-0.24,0.34-0.59,0.64-0.64,0.98c-0.03,0.21,0.35,0.61,0.62,0.72
		c1.32,0.49,2.67,0.49,3.99-0.05c0.71-0.3,1.11-1.01,0.99-1.66c-0.14-0.75-0.66-1.09-1.37-1.15c-0.8-0.06-1.62-0.04-2.42-0.13
		c-0.22-0.02-0.42-0.32-0.62-0.49c0.2-0.21,0.37-0.5,0.61-0.61c0.23-0.1,0.55,0.01,0.82-0.01c0.91-0.09,1.73-0.37,2.21-1.21
		C78.37,102.48,78.24,101.81,77.62,101.1z M58.72,102.98c-0.17,0.41-0.32,0.78-0.48,1.14c-0.41,0.94-1.1,1.46-2.16,1.41
		c-0.28-0.01-0.56,0-0.83,0c-0.81-0.01-0.93-0.12-0.93-0.93c-0.01-1.64,0-3.28,0-4.93c0-1.46,0-1.46,1.38-2c-1.67,0-3.17,0-4.67,0
		c0.05,0.13,0.12,0.19,0.19,0.2c0.99,0.14,1.02,0.18,1.02,1.17c0,1.8,0,3.61,0,5.41c0,1.18,0,1.18-1.17,1.41
		c-0.02,0-0.03,0.07-0.06,0.16c2.54,0,5.06,0,7.6,0c0.09-0.98,0.17-1.92,0.25-2.86C58.86,103.13,58.81,103.1,58.72,102.98z
		 M72.04,106.03c-0.13-0.43-0.33-0.8-0.35-1.18c-0.06-1.08,0.01-2.18-0.1-3.26c-0.13-1.22-1.28-1.7-2.32-1.06
		c-0.25,0.15-0.46,0.36-0.75,0.58c-0.03-0.28-0.05-0.49-0.07-0.66c-0.79,0-1.55,0-2.12,0c0.12,0.41,0.31,0.78,0.33,1.16
		c0.05,0.85,0.03,1.71,0.01,2.57c-0.01,0.65,0.22,1.37-0.64,1.81c1.09,0,2.03,0,2.8,0c-0.12-0.42-0.32-0.81-0.34-1.22
		c-0.05-0.78-0.04-1.57,0-2.36c0.01-0.31,0.1-0.65,0.28-0.89c0.15-0.21,0.47-0.3,0.71-0.44c0.13,0.24,0.36,0.48,0.37,0.74
		c0.05,0.69,0.04,1.39,0.02,2.08c-0.03,0.73,0.27,1.55-0.63,2.12C70.32,106.03,71.25,106.03,72.04,106.03z M95.82,106.05
		c-0.14-0.47-0.34-0.86-0.37-1.26c-0.05-0.81-0.05-1.62,0-2.43c0.02-0.32,0.16-0.67,0.35-0.94c0.12-0.17,0.48-0.36,0.61-0.3
		c0.19,0.09,0.38,0.4,0.4,0.63c0.05,0.76,0.04,1.53,0.02,2.29c-0.02,0.69,0.25,1.47-0.62,1.96c1.07,0,2.01,0,2.78,0
		c-0.12-0.42-0.31-0.81-0.34-1.21c-0.06-0.99-0.02-1.99-0.06-2.98c-0.03-0.63-0.25-1.18-0.9-1.44c-0.66-0.26-1.22-0.05-1.74,0.37
		c-0.15,0.12-0.29,0.23-0.48,0.39c-0.03-0.3-0.05-0.5-0.06-0.66c-0.79,0-1.55,0-2.12,0c0.13,0.41,0.32,0.78,0.34,1.15
		c0.05,0.88,0.02,1.76,0.01,2.64c-0.01,0.63,0.19,1.33-0.56,1.77c0.85,0.05,1.63,0.05,2.41,0.05
		C95.64,106.07,95.79,106.06,95.82,106.05z M65.26,105.41c-0.66-0.07-0.67-0.07-0.67-0.79c-0.01-0.86,0.03-1.71-0.03-2.57
		c-0.02-0.37-0.12-0.81-0.34-1.09c-0.88-1.11-3.61-0.83-4.3,0.41c-0.22,0.4-0.28,0.8,0.12,1.12c0.36,0.29,0.77,0.34,1.14,0.02
		c0.37-0.32,0.3-0.69,0.04-1.05c-0.34-0.47-0.07-0.69,0.36-0.78c0.48-0.1,0.95-0.05,1.16,0.5c0.24,0.63,0.02,1.38-0.41,1.62
		c-0.77,0.42-1.56,0.81-2.26,1.32c-0.47,0.34-0.64,0.93-0.31,1.49c0.33,0.55,0.86,0.71,1.45,0.5c0.53-0.2,1.03-0.5,1.55-0.75
		C63.46,106.49,64.51,106.53,65.26,105.41z M92.1,103.24c-0.01-1.73-1.19-2.98-2.81-2.98c-1.54,0-2.72,1.3-2.73,2.99
		c-0.01,1.71,1.2,2.99,2.81,2.96C90.97,106.18,92.11,104.95,92.1,103.24z M71.55,59.17c0,0.47,0.42,0.9,0.88,0.89
		c0.44,0,0.93-0.47,0.89-0.89c-0.06-0.51-0.34-0.85-0.89-0.87C71.95,58.28,71.55,58.69,71.55,59.17z M88.69,52.88
		c-0.54,0.02-0.87,0.31-0.87,0.85c0,0.52,0.29,0.86,0.86,0.86c0.55,0,0.88-0.33,0.89-0.85C89.57,53.22,89.24,52.91,88.69,52.88z
		 M63.78,74.88c-0.02-0.58-0.45-1.02-0.9-0.96c-0.54,0.06-0.83,0.38-0.8,0.94c0.03,0.53,0.34,0.81,0.85,0.8
		C63.47,75.64,63.77,75.33,63.78,74.88z"/>
	<path d="M74.05,71.08c-0.16-1.13-0.34-2.2-0.46-3.27c-0.22-1.97,0-3.92,0.34-5.86c0.09-0.51,0.42-0.53,0.8-0.55
		c2.11-0.08,4.14,0.32,6.12,1.01c0.65,0.23,1.29,0.5,1.83,0.71c1.08-1.42,2.08-2.85,3.2-4.19c0.68-0.81,1.55-1.46,2.3-2.21
		c0.36-0.36,0.62-0.31,1-0.03c2.24,1.68,3.8,3.88,5,6.38c0.13,0.27,0.26,0.54,0.39,0.81c0.01,0.02,0.03,0.03,0.09,0.08
		c1.5-1.02,3.13-1.84,4.92-2.22c1.77-0.38,3.58-0.62,5.54-0.96c0.26,1.56,0.61,2.91,0.68,4.28c0.11,2.34-0.18,4.68-1.06,6.87
		c-1.63,4.03-4.74,6.28-8.94,7.04c-2.05,0.37-3.18-0.11-4.77-1.6c-0.99,0.22-1.9,0.43-2.82,0.62c-0.63,0.13-1.08,0.73-1.2,1.35
		c-0.17,0.91-0.47,1.8-0.75,2.84c2.01,2.7,0.53,5.38-1.39,7.2c-2.26,2.14-4.97,3.44-8.09,3.73c-1.59,0.15-3.12-0.25-4.62-0.76
		c-2.26-0.76-4.28-1.95-6.17-3.41c0.96-2.8,2.84-4.9,5.05-6.88c-2.2-2.08-3.92-4.47-5.07-7.31C68.29,72.69,71.08,71.72,74.05,71.08z
		 M91.75,76.64c0.65,0.87,1.48,1.28,2.46,1.38c3.65,0.39,8.16-2.55,9.58-6.29c1.02-2.67,1.28-5.43,0.87-8.25
		c-0.23-1.58-0.26-1.6-1.83-1.41c-2.6,0.31-5.06,1.03-7.29,2.45c-0.43,0.27-0.59,0.52-0.43,1.06c0.45,1.53,0.45,3.09,0.12,4.66
		C94.7,72.69,93.64,74.85,91.75,76.64z M85.43,82.73c-0.62,0.34-1.11,0.7-1.67,0.91c-3.9,1.49-7.72,1.37-11.43-0.64
		c-0.21-0.11-0.61-0.18-0.75-0.06c-1.85,1.56-3.4,3.38-4.45,5.64c1.54,1.1,3.18,1.97,4.92,2.69c3.11,1.29,6.13,1.13,9.09-0.44
		c2.04-1.08,3.84-2.42,4.82-4.6C86.51,84.98,86.24,83.82,85.43,82.73z M86.21,79.18c-1-0.04-1.87,0.02-2.69-0.14
		c-3.36-0.65-5.92-2.56-8.01-5.2c-0.47-0.59-0.56-1.64-1.39-1.72c-0.74-0.07-1.53,0.29-2.27,0.53c-1.7,0.54-3.3,1.28-4.73,2.4
		c1.22,2.43,2.71,4.6,4.72,6.36c4.53-3.05,9.02-2.81,13.67-0.11C85.73,80.62,85.96,79.93,86.21,79.18z M83.75,63.58
		c4.83,3.28,6.66,7.67,5.23,13.39c0.28-0.1,0.56-0.2,0.84-0.28c0.5-0.14,0.67-0.35,0.53-0.94c-0.2-0.82-0.33-1.69-0.28-2.53
		c0.15-2.54,1.02-4.85,2.47-6.95c0.42-0.6,1.09-1.22,1.11-1.85c0.02-0.67-0.59-1.36-0.92-2.05c-0.02-0.04-0.04-0.08-0.06-0.12
		c-1.04-1.79-2.28-3.4-3.96-4.72C86.67,59.28,84.96,61.24,83.75,63.58z M82.44,64.1c-2.3-1.05-4.59-1.67-7.03-1.78
		c-0.47-0.02-0.67,0.13-0.69,0.61c-0.04,0.65-0.15,1.29-0.2,1.93c-0.17,2.04,0.03,4.05,0.58,6.06c2.8-0.32,5.33,0.4,7.79,2.05
		C81.82,69.96,81.39,67.08,82.44,64.1z M83.29,64.59c-0.07,0.19-0.13,0.34-0.17,0.49c-0.86,3.78,0,7.18,2.32,10.23
		c0.56,0.74,1.31,1.28,2.2,1.58C90.03,73.68,87.52,66.52,83.29,64.59z M75.59,71.95c0.84,2.55,6.17,7.03,10.2,6.12
		C84.36,73.94,79,71.22,75.59,71.95z M84.58,82.06c-3.4-2.65-9.17-2.39-11.79,0.03C74.93,83.83,81.12,84.54,84.58,82.06z
		 M94.1,65.77c-2.22,2.95-3.6,6.06-2.83,9.87C93.76,73.58,95.25,68.41,94.1,65.77z"/>
	<path d="M104.57,57.85c-0.28,0.02-0.51,0.05-0.74,0.06c-0.04,0-0.08-0.02-0.13-0.04c-2.25-15.22-15.05-25.42-28.86-25.46
		c-14.35-0.05-25.45,9.62-28.86,22.3C42.23,68.7,50.08,84.19,64.44,89.6c-0.11,0.28-0.22,0.56-0.32,0.84
		c-12.89-4.65-21.77-18.29-19.74-32.51c2.42-16.96,17.53-27.82,32.86-26.39C93.17,33.03,103.26,45.81,104.57,57.85z"/>
	<path d="M85.41,105.8c-0.59,0.11-1.33,0.24-2.12,0.38c-0.04-0.25-0.07-0.49-0.11-0.79c-0.12,0.1-0.2,0.17-0.28,0.24
		c-0.94,0.84-2.14,0.7-2.85-0.33c-0.77-1.12-0.73-3.04,0.08-4.13c0.77-1.05,1.87-1.14,3.1-0.21c0-0.87,0.06-1.7-0.03-2.51
		c-0.03-0.28-0.43-0.52-0.66-0.76c0.73,0,1.57,0,2.49,0c0,1.32,0,2.65,0,3.99c0,0.99-0.03,1.99,0.02,2.98
		C85.05,105.01,85.25,105.35,85.41,105.8z M83.22,103.28c0.04-0.01,0.09-0.02,0.13-0.03c-0.15-0.68-0.23-1.39-0.47-2.04
		c-0.09-0.25-0.53-0.53-0.78-0.51c-0.24,0.02-0.63,0.41-0.64,0.66c-0.06,1.14-0.05,2.28,0.02,3.41c0.03,0.39,0.31,0.83,0.84,0.73
		c0.52-0.09,0.86-0.44,0.9-0.99C83.24,104.11,83.22,103.69,83.22,103.28z"/>
	<path d="M77.62,101.1c0.62,0.71,0.75,1.38,0.35,2.08c-0.48,0.84-1.31,1.13-2.21,1.21c-0.27,0.03-0.59-0.09-0.82,0.01
		c-0.25,0.11-0.41,0.4-0.61,0.61c0.21,0.17,0.4,0.47,0.62,0.49c0.8,0.09,1.61,0.06,2.42,0.13c0.71,0.06,1.23,0.4,1.37,1.15
		c0.12,0.65-0.28,1.37-0.99,1.66c-1.31,0.54-2.66,0.54-3.99,0.05c-0.27-0.1-0.65-0.5-0.62-0.72c0.05-0.34,0.4-0.64,0.64-0.98
		c-0.9-1-0.81-1.41,0.65-2.57c-0.03-0.03-0.05-0.07-0.08-0.09c-1.09-0.68-1.45-1.38-1.18-2.31c0.27-0.93,1.17-1.59,2.29-1.56
		c1.08,0.02,2.16,0.12,3.27,0.18c0,0.19,0,0.38,0,0.6C78.38,101.07,78.06,101.08,77.62,101.1z M75.85,108.52
		c0.48-0.1,0.99-0.16,1.46-0.33c0.21-0.08,0.46-0.4,0.44-0.59c-0.02-0.18-0.35-0.46-0.56-0.48c-0.85-0.06-1.71-0.07-2.56-0.03
		c-0.2,0.01-0.52,0.3-0.55,0.49c-0.03,0.2,0.2,0.55,0.4,0.63C74.9,108.38,75.37,108.42,75.85,108.52z M74.84,102.25
		c0.05,0.42,0.01,0.8,0.15,1.09c0.13,0.27,0.43,0.57,0.69,0.6c0.19,0.02,0.6-0.36,0.62-0.58c0.07-0.72,0.03-1.46-0.05-2.19
		c-0.02-0.19-0.37-0.49-0.55-0.48c-0.23,0.02-0.55,0.25-0.65,0.47C74.89,101.52,74.89,101.93,74.84,102.25z"/>
	<path d="M58.72,102.98c0.09,0.12,0.14,0.15,0.14,0.18c-0.08,0.94-0.17,1.88-0.25,2.86c-2.54,0-5.06,0-7.6,0
		c0.03-0.09,0.04-0.16,0.06-0.16c1.17-0.22,1.17-0.22,1.17-1.41c0-1.8,0-3.61,0-5.41c0-0.99-0.04-1.03-1.02-1.17
		c-0.07-0.01-0.14-0.06-0.19-0.2c1.5,0,3,0,4.67,0c-1.38,0.53-1.38,0.53-1.38,2c0,1.64-0.01,3.28,0,4.93c0,0.81,0.12,0.92,0.93,0.93
		c0.28,0,0.56-0.01,0.83,0c1.06,0.05,1.75-0.47,2.16-1.41C58.4,103.75,58.55,103.39,58.72,102.98z"/>
	<path d="M72.04,106.03c-0.79,0-1.72,0-2.8,0c0.9-0.57,0.6-1.39,0.63-2.12c0.03-0.69,0.04-1.39-0.02-2.08
		c-0.02-0.25-0.24-0.49-0.37-0.74c-0.24,0.14-0.56,0.23-0.71,0.44c-0.17,0.24-0.26,0.59-0.28,0.89c-0.04,0.78-0.05,1.58,0,2.36
		c0.03,0.41,0.22,0.8,0.34,1.22c-0.77,0-1.71,0-2.8,0c0.86-0.44,0.63-1.16,0.64-1.81c0.01-0.86,0.04-1.71-0.01-2.57
		c-0.02-0.38-0.21-0.75-0.33-1.16c0.57,0,1.32,0,2.12,0c0.02,0.17,0.04,0.39,0.07,0.66c0.29-0.23,0.5-0.43,0.75-0.58
		c1.04-0.65,2.19-0.16,2.32,1.06c0.11,1.08,0.04,2.17,0.1,3.26C71.71,105.23,71.91,105.6,72.04,106.03z"/>
	<path d="M95.82,106.05c-0.03,0-0.19,0.02-0.34,0.02c-0.78,0-1.56,0-2.41-0.05c0.76-0.44,0.56-1.14,0.56-1.77
		c0.01-0.88,0.04-1.76-0.01-2.64c-0.02-0.38-0.21-0.74-0.34-1.15c0.57,0,1.33,0,2.12,0c0.02,0.17,0.03,0.37,0.06,0.66
		c0.19-0.15,0.33-0.27,0.48-0.39c0.52-0.41,1.08-0.63,1.74-0.37c0.65,0.26,0.88,0.81,0.9,1.44c0.04,0.99,0,1.99,0.06,2.98
		c0.02,0.4,0.21,0.79,0.34,1.21c-0.76,0-1.7,0-2.78,0c0.87-0.5,0.6-1.27,0.62-1.96c0.02-0.76,0.03-1.53-0.02-2.29
		c-0.02-0.23-0.2-0.54-0.4-0.63c-0.14-0.06-0.5,0.13-0.61,0.3c-0.18,0.27-0.33,0.62-0.35,0.94c-0.05,0.81-0.05,1.62,0,2.43
		C95.48,105.19,95.68,105.59,95.82,106.05z"/>
	<path d="M65.26,105.41c-0.75,1.11-1.81,1.07-2.5-0.04c-0.52,0.26-1.02,0.55-1.55,0.75c-0.58,0.21-1.12,0.05-1.45-0.5
		c-0.34-0.56-0.16-1.15,0.31-1.49c0.7-0.51,1.5-0.9,2.26-1.32c0.43-0.23,0.65-0.98,0.41-1.62c-0.21-0.54-0.68-0.6-1.16-0.5
		c-0.43,0.09-0.69,0.31-0.36,0.78c0.26,0.36,0.32,0.74-0.04,1.05c-0.37,0.32-0.78,0.27-1.14-0.02c-0.4-0.32-0.35-0.73-0.12-1.12
		c0.7-1.24,3.42-1.53,4.3-0.41c0.22,0.28,0.32,0.72,0.34,1.09c0.05,0.85,0.02,1.71,0.03,2.57C64.6,105.34,64.6,105.34,65.26,105.41z
		 M62.79,103.09c-0.07-0.04-0.13-0.08-0.2-0.12c-0.38,0.43-0.82,0.82-1.12,1.3c-0.11,0.17,0.01,0.59,0.16,0.8
		c0.1,0.14,0.5,0.19,0.67,0.1c0.22-0.12,0.43-0.41,0.47-0.65C62.85,104.05,62.79,103.57,62.79,103.09z"/>
	<path d="M92.1,103.24c0.01,1.71-1.12,2.94-2.73,2.97c-1.61,0.03-2.82-1.25-2.81-2.96c0.01-1.69,1.19-2.98,2.73-2.99
		C90.91,100.25,92.09,101.51,92.1,103.24z M90.36,103.14c-0.06-0.57-0.04-1.21-0.21-1.79c-0.09-0.28-0.53-0.64-0.81-0.63
		c-0.28,0-0.77,0.39-0.79,0.64c-0.09,1.23-0.09,2.47-0.05,3.7c0.01,0.45,0.35,0.74,0.85,0.74c0.5,0,0.77-0.31,0.83-0.76
		C90.26,104.43,90.29,103.81,90.36,103.14z"/>
	<path d="M71.55,59.17c0-0.48,0.4-0.89,0.87-0.87c0.55,0.02,0.84,0.36,0.89,0.87c0.05,0.42-0.45,0.89-0.89,0.89
		C71.97,60.07,71.55,59.64,71.55,59.17z"/>
	<path d="M88.69,52.88c0.56,0.03,0.88,0.34,0.88,0.87c-0.01,0.52-0.33,0.85-0.89,0.85c-0.56,0-0.85-0.35-0.86-0.86
		C87.82,53.19,88.14,52.89,88.69,52.88z"/>
	<path d="M63.78,74.88c-0.01,0.45-0.31,0.76-0.85,0.77c-0.51,0.01-0.82-0.27-0.85-0.8c-0.03-0.55,0.27-0.88,0.8-0.94
		C63.33,73.86,63.76,74.3,63.78,74.88z"/>
	<path class="st0" d="M91.75,76.64c1.89-1.79,2.96-3.95,3.48-6.41c0.33-1.57,0.33-3.12-0.12-4.66c-0.16-0.54,0-0.78,0.43-1.06
		c2.23-1.42,4.7-2.13,7.29-2.45c1.57-0.19,1.6-0.17,1.83,1.41c0.41,2.82,0.15,5.58-0.87,8.25c-1.42,3.74-5.94,6.69-9.58,6.29
		C93.23,77.92,92.4,77.51,91.75,76.64z"/>
	<path class="st0" d="M85.43,82.73c0.81,1.09,1.08,2.24,0.51,3.51c-0.98,2.18-2.78,3.52-4.82,4.6c-2.96,1.57-5.98,1.73-9.09,0.44
		c-1.73-0.72-3.37-1.59-4.92-2.69c1.05-2.27,2.6-4.08,4.45-5.64c0.14-0.12,0.54-0.05,0.75,0.06c3.71,2.01,7.53,2.13,11.43,0.64
		C84.32,83.43,84.82,83.07,85.43,82.73z"/>
	<path class="st0" d="M86.21,79.18c-0.25,0.75-0.48,1.45-0.71,2.12c-4.65-2.71-9.14-2.94-13.67,0.11c-2.01-1.77-3.5-3.93-4.72-6.36
		c1.43-1.12,3.03-1.86,4.73-2.4c0.75-0.24,1.54-0.6,2.27-0.53c0.83,0.08,0.92,1.13,1.39,1.72c2.09,2.64,4.65,4.55,8.01,5.2
		C84.34,79.2,85.21,79.13,86.21,79.18z"/>
	<path class="st0" d="M83.75,63.58c1.21-2.34,2.93-4.3,4.96-6.06c1.67,1.31,2.92,2.93,3.96,4.72c0.02,0.04,0.04,0.08,0.06,0.12
		c0.33,0.68,0.94,1.37,0.92,2.05c-0.02,0.63-0.69,1.25-1.11,1.85c-1.45,2.1-2.32,4.41-2.47,6.95c-0.05,0.84,0.08,1.71,0.28,2.53
		c0.15,0.59-0.03,0.8-0.53,0.94c-0.28,0.08-0.56,0.19-0.84,0.28C90.41,71.24,88.58,66.86,83.75,63.58z"/>
	<path class="st0" d="M82.44,64.1c-1.05,2.98-0.62,5.86,0.45,8.87c-2.46-1.66-4.98-2.37-7.79-2.05c-0.56-2.01-0.75-4.02-0.58-6.06
		c0.05-0.65,0.16-1.29,0.2-1.93c0.03-0.48,0.22-0.63,0.69-0.61C77.85,62.43,80.14,63.05,82.44,64.1z"/>
	<path class="st0" d="M83.29,64.59c4.22,1.93,6.74,9.09,4.35,12.31c-0.89-0.3-1.64-0.84-2.2-1.58c-2.32-3.05-3.18-6.45-2.32-10.23
		C83.16,64.93,83.23,64.78,83.29,64.59z"/>
	<path class="st0" d="M75.59,71.95c3.41-0.73,8.77,1.99,10.2,6.12C81.76,78.98,76.42,74.5,75.59,71.95z"/>
	<path class="st0" d="M84.58,82.06c-3.47,2.49-9.65,1.77-11.79,0.03C75.41,79.66,81.18,79.41,84.58,82.06z"/>
	<path class="st0" d="M94.1,65.77c1.15,2.64-0.34,7.82-2.83,9.87C90.5,71.83,91.88,68.72,94.1,65.77z"/>
	<path class="st0" d="M83.22,103.28c0,0.41,0.02,0.83-0.01,1.24c-0.04,0.55-0.38,0.89-0.9,0.99c-0.53,0.1-0.81-0.33-0.84-0.73
		c-0.07-1.13-0.08-2.28-0.02-3.41c0.01-0.24,0.4-0.63,0.64-0.66c0.25-0.02,0.69,0.26,0.78,0.51c0.23,0.65,0.32,1.35,0.47,2.04
		C83.3,103.26,83.26,103.27,83.22,103.28z"/>
	<path class="st0" d="M75.85,108.52c-0.49-0.1-0.95-0.14-1.37-0.31c-0.2-0.08-0.42-0.43-0.4-0.63c0.03-0.19,0.35-0.48,0.55-0.49
		c0.85-0.05,1.71-0.04,2.56,0.03c0.21,0.02,0.54,0.29,0.56,0.48c0.02,0.19-0.23,0.52-0.44,0.59
		C76.85,108.36,76.34,108.42,75.85,108.52z"/>
	<path class="st0" d="M74.84,102.25c0.05-0.32,0.05-0.73,0.21-1.08c0.1-0.22,0.42-0.46,0.65-0.47c0.18-0.01,0.53,0.29,0.55,0.48
		c0.08,0.72,0.11,1.46,0.05,2.19c-0.02,0.23-0.43,0.6-0.62,0.58c-0.26-0.03-0.57-0.34-0.69-0.6
		C74.84,103.05,74.88,102.67,74.84,102.25z"/>
	<path class="st0" d="M62.79,103.09c0,0.48,0.05,0.96-0.02,1.42c-0.04,0.24-0.25,0.53-0.47,0.65c-0.17,0.09-0.57,0.04-0.67-0.1
		c-0.15-0.21-0.27-0.63-0.16-0.8c0.31-0.48,0.74-0.87,1.12-1.3C62.66,103.01,62.73,103.05,62.79,103.09z"/>
	<path class="st0" d="M90.36,103.14c-0.06,0.67-0.09,1.29-0.18,1.91c-0.07,0.45-0.33,0.76-0.83,0.76c-0.5,0-0.83-0.29-0.85-0.74
		c-0.04-1.23-0.04-2.47,0.05-3.7c0.02-0.25,0.51-0.64,0.79-0.64c0.28,0,0.73,0.35,0.81,0.63C90.32,101.93,90.3,102.57,90.36,103.14z
		"/>
</g>
</svg>
