<?xml version="1.0" encoding="utf-8"?>
<!-- Generator: Adobe Illustrator 26.0.2, SVG Export Plug-In . SVG Version: 6.00 Build 0)  -->
<svg version="1.1" id="Layer_1" xmlns="http://www.w3.org/2000/svg" xmlns:xlink="http://www.w3.org/1999/xlink" x="0px" y="0px"
	 viewBox="0 0 200 200" style="enable-background:new 0 0 200 200;" xml:space="preserve">
<style type="text/css">
	.st0{fill:#FFFFFF;}
	.st1{fill:#C1272D;}
	.st2{fill:#ED2024;}
	.st3{fill:#D9E026;}
	.st4{fill:#F2E3E7;}
	.st5{fill:#EFB1A9;}
	.st6{fill:#FAED23;}
	.st7{fill:#E7524A;}
</style>
<g>
	<path class="st0" d="M6.14,195.59c-0.21,0-0.3-0.02-0.33-0.03c0.02,0,0-0.1,0-0.33c0.02-62.35,0.02-124.7,0-187.04
		c0-0.22,0.01-0.32,0.02-0.35c0,0,0.01,0,0.03,0c0.04,0,0.13-0.01,0.29-0.01c30.68,0.01,61.36,0.02,92.04,0.02
		c31.67,0,63.34-0.01,95.01-0.02c0.28,0,0.36,0.03,0.37,0.04c0,0,0,0,0,0c-0.02,0,0,0.09,0,0.37c-0.02,28.48-0.02,56.97-0.02,85.45
		v16.61c0,28.33,0,56.66,0.02,84.99c0,0.18-0.01,0.27-0.02,0.31c0,0-0.01,0-0.03,0c-0.04,0-0.12,0.01-0.25,0.01
		c-30.44-0.01-60.88-0.01-91.31-0.01C70.03,195.57,38.09,195.57,6.14,195.59L6.14,195.59z"/>
	<path d="M193.08,8.32c-0.02,27.82-0.02,55.64-0.02,83.47l0,10.01l0,9.4c0,27.96,0,55.92,0.02,83.89
		c-30.01-0.01-60.03-0.01-90.04-0.01c-32.24,0-64.48,0.01-96.72,0.02c0.02-62.43,0.02-125.27,0-186.77
		c30.6,0.01,61.21,0.02,91.82,0.02C129.78,8.34,161.43,8.33,193.08,8.32 M193.21,7.32C193.21,7.32,193.21,7.32,193.21,7.32
		c-31.69,0.01-63.38,0.02-95.08,0.02c-30.66,0-61.32-0.01-91.98-0.02c0,0,0,0,0,0c-0.72,0-0.84,0.17-0.84,0.86
		c0.02,62.35,0.02,124.7,0,187.04c0,0.68,0.1,0.86,0.83,0.86c0,0,0,0,0,0c32.3-0.01,64.59-0.02,96.89-0.02
		c30.08,0,60.17,0,90.25,0.01c0,0,0,0,0,0c0.67,0,0.79-0.17,0.79-0.81c-0.02-31.16-0.02-62.32-0.02-93.48
		c0-31.19,0-62.38,0.02-93.57C194.08,7.53,193.98,7.32,193.21,7.32L193.21,7.32z"/>
</g>
<g>
	<path class="st0" d="M101.03,123.94c-1.96,0-4.03-0.46-6.32-1.41c-1.88-0.78-3.76-1.86-5.92-3.4c-0.11-0.08-0.13-0.12-0.13-0.12
		c0-0.04,0.06-0.2,0.1-0.3c1.06-2.6,2.84-4.99,5.43-7.29c0.28-0.25,0.55-0.54,0.55-0.92c0.01-0.38-0.24-0.66-0.51-0.92
		c-2.18-2.04-3.95-4.56-5.42-7.69c-0.19-0.4-0.17-0.48,0.18-0.75c2.32-1.79,5.09-3.01,8.46-3.74c0.4-0.09,0.82-0.2,1.05-0.57
		c0.23-0.36,0.17-0.8,0.08-1.19c-0.74-3.17-0.76-6.55-0.04-10.34c0.05-0.24,0.05-0.28,0.51-0.29C99.28,85.01,99.5,85,99.72,85
		c2.78,0,5.61,0.64,8.65,1.96c0.28,0.12,0.49,0.17,0.68,0.17c0.6,0,0.88-0.51,1.02-0.78c1.49-2.72,3.56-5.16,6.34-7.43
		c0.14-0.12,0.19-0.12,0.19-0.12c0,0,0.05,0,0.24,0.13c2.62,1.91,4.66,4.52,6.4,8.23c0.12,0.27,0.21,0.45,0.3,0.64
		c0.04,0.09,0.1,0.15,0.14,0.2l0.29,0.34l0.42-0.19c3.18-2.2,6.97-3.37,11.92-3.68l0.13,0c0.29,0,0.4,0.02,0.52,0.45
		c0.82,2.91,0.91,5.97,0.29,9.34c-0.38,2.06-0.98,4.43-2.56,6.39c-2.76,3.43-6.17,5.32-10.14,5.6c-0.16,0.01-0.32,0.02-0.47,0.02
		c-1.54,0-2.82-0.56-3.83-1.66c-0.24-0.27-0.53-0.52-0.95-0.52c-0.2,0-0.41,0.06-0.65,0.18c-0.75,0.38-1.58,0.6-2.56,0.66
		c-1.08,0.07-1.97,1.01-2.03,2.15c-0.06,1.05-0.34,1.93-0.86,2.68c-0.21,0.3-0.44,0.77-0.01,1.34c1.4,1.85,1.41,3.84,0.05,6.09
		c-1.91,3.14-5.04,4.74-7.55,5.79C104.18,123.63,102.65,123.94,101.03,123.94z"/>
	<path d="M116.63,79.4c2.51,1.85,4.48,4.39,6.17,7.98l0.03,0.07c0.09,0.19,0.18,0.38,0.28,0.57c0.07,0.14,0.16,0.24,0.23,0.34
		l0.58,0.74l0.77-0.54c3.1-2.14,6.81-3.29,11.67-3.59c0.03,0,0.07,0,0.1,0c0,0,0.01,0,0.01,0c0.01,0.02,0.02,0.05,0.03,0.08
		c0.8,2.84,0.89,5.82,0.28,9.12c-0.37,2-0.95,4.3-2.46,6.17c-2.71,3.37-5.91,5.14-9.79,5.42c-0.15,0.01-0.29,0.02-0.44,0.02
		c-1.39,0-2.55-0.5-3.46-1.5c-0.19-0.2-0.62-0.68-1.32-0.68c-0.28,0-0.57,0.08-0.88,0.24c-0.68,0.35-1.45,0.55-2.36,0.6
		c-1.33,0.08-2.42,1.23-2.5,2.62c-0.05,0.95-0.3,1.74-0.77,2.42c-0.58,0.83-0.32,1.51,0,1.93c1.28,1.69,1.28,3.45,0.02,5.53
		c-1.83,3.01-4.88,4.57-7.32,5.59c-1.46,0.61-2.93,0.91-4.49,0.91c-1.9,0-3.9-0.45-6.13-1.37c-1.78-0.74-3.58-1.76-5.65-3.23
		c1.03-2.51,2.76-4.81,5.28-7.05c0.23-0.2,0.71-0.63,0.72-1.29c0.01-0.65-0.45-1.08-0.67-1.29c-2.13-2-3.87-4.46-5.31-7.54
		c-0.01-0.03-0.03-0.06-0.04-0.08c0.02-0.02,0.04-0.04,0.07-0.06c2.26-1.74,4.96-2.93,8.26-3.65c0.35-0.08,1-0.22,1.36-0.79
		c0.33-0.52,0.25-1.11,0.14-1.57c-0.72-3.07-0.74-6.34-0.06-10.01c0.02,0,0.04,0,0.06,0c0.22-0.01,0.43-0.01,0.64-0.01
		c2.71,0,5.47,0.63,8.46,1.92c0.23,0.1,0.54,0.22,0.88,0.22c0.89,0,1.29-0.73,1.46-1.04C111.96,83.97,113.96,81.61,116.63,79.4
		 M116.61,78.31c-0.16,0-0.31,0.07-0.51,0.23c-2.61,2.14-4.83,4.61-6.46,7.58c-0.19,0.36-0.34,0.52-0.58,0.52
		c-0.13,0-0.28-0.05-0.48-0.13c-2.83-1.23-5.76-2-8.85-2c-0.23,0-0.45,0-0.68,0.01c-0.51,0.02-0.87,0.08-0.99,0.7
		c-0.67,3.52-0.78,7.04,0.04,10.54c0.2,0.83-0.02,1-0.74,1.15c-3.14,0.68-6.08,1.85-8.66,3.84c-0.52,0.4-0.62,0.73-0.33,1.36
		c1.38,2.94,3.15,5.61,5.53,7.84c0.48,0.45,0.48,0.64-0.03,1.1c-2.37,2.1-4.36,4.5-5.57,7.48c-0.16,0.38-0.27,0.68,0.2,1.01
		c1.89,1.35,3.86,2.56,6.01,3.46c2.15,0.89,4.32,1.45,6.51,1.45c1.61,0,3.23-0.3,4.87-0.99c3.14-1.31,5.97-3.01,7.79-6
		c1.34-2.21,1.59-4.46-0.07-6.65c-0.22-0.29-0.16-0.49,0.02-0.75c0.62-0.88,0.9-1.88,0.95-2.94c0.05-0.87,0.71-1.63,1.56-1.68
		c0.97-0.06,1.9-0.27,2.76-0.71c0.17-0.09,0.3-0.13,0.42-0.13c0.21,0,0.37,0.13,0.58,0.35c1.14,1.25,2.58,1.82,4.2,1.82
		c0.17,0,0.34-0.01,0.51-0.02c4.37-0.32,7.8-2.44,10.5-5.79c1.54-1.92,2.22-4.23,2.66-6.62c0.59-3.22,0.59-6.4-0.3-9.57
		c-0.16-0.59-0.43-0.81-1-0.81c-0.05,0-0.1,0-0.16,0.01c-4.37,0.27-8.52,1.24-12.18,3.77c-0.06-0.07-0.1-0.11-0.13-0.16
		c-0.1-0.21-0.2-0.42-0.3-0.63c-1.55-3.3-3.56-6.24-6.56-8.42C116.94,78.39,116.78,78.31,116.61,78.31L116.61,78.31z"/>
</g>
<g>
	<path class="st0" d="M85.41,120.51c-5.7-2.28-10.59-5.68-14.54-10.1c-4.8-5.37-7.86-11.76-9.11-18.98c-0.38-2.2-0.52-4.22-0.4-5.85
		c-0.33-17.09,10.96-32.22,27.46-36.84c3.29-0.92,6.68-1.39,10.08-1.39c11.38,0,22.02,5.11,29.19,14.02
		c4.19,5.21,6.88,11.28,7.97,18.05c0.01,0.07,0.04,0.16,0.07,0.26c-0.13,0.01-0.21,0.02-0.29,0.02c0,0.01,0,0.01,0,0.01
		c0,0-0.04-0.07-0.06-0.24c-1.32-8.36-5.03-15.55-11.02-21.35c-5.32-5.15-11.56-8.42-18.53-9.73c-2.65-0.49-5.26-0.74-7.78-0.74
		c-9.26,0-17.65,3.36-24.94,10C67.32,63.3,63.48,70.41,62.1,78.8c-1.82,11.13,0.81,21.25,7.83,30.06
		c3.99,5.01,9.18,8.81,15.41,11.29c0.16,0.06,0.23,0.11,0.25,0.13c-0.01,0.01-0.02,0.08-0.08,0.2c-0.01,0.02-0.02,0.04-0.03,0.06
		C85.47,120.53,85.44,120.52,85.41,120.51z"/>
	<path d="M98.91,46.85c-3.41,0-6.84,0.46-10.22,1.4c-17,4.76-28.16,20.49-27.83,37.28c-0.13,1.77,0.05,3.88,0.41,5.98
		c1.26,7.28,4.3,13.71,9.23,19.23c4.09,4.58,9.03,7.95,14.72,10.23c0.13,0.05,0.24,0.08,0.34,0.08c0.19,0,0.31-0.11,0.42-0.38
		c0.22-0.53,0.12-0.76-0.45-0.99c-6.03-2.39-11.16-6.05-15.2-11.13c-6.96-8.74-9.53-18.65-7.73-29.67
		c1.35-8.24,5.12-15.27,11.27-20.86c7.23-6.58,15.46-9.87,24.6-9.87c2.5,0,5.06,0.25,7.69,0.74c7.06,1.32,13.13,4.62,18.27,9.59
		c5.98,5.79,9.58,12.85,10.88,21.07c0.08,0.54,0.25,0.65,0.55,0.65c0.11,0,0.23-0.01,0.38-0.03c0.74-0.08,0.37-0.57,0.33-0.83
		c-1.1-6.79-3.75-12.9-8.08-18.28C121.09,51.87,110.16,46.85,98.91,46.85L98.91,46.85z"/>
</g>
<g>
	<path class="st1" d="M100.42,143.73c-0.41,0-0.84-0.03-1.32-0.1c-0.38-0.05-0.77-0.16-1.14-0.31c-0.46-0.19-0.46-0.4-0.46-0.5
		c0-0.14,0.03-0.27,0.41-0.44c0.1-0.04,0.19-0.1,0.28-0.16l0.56-0.35l-0.41-0.5c-0.48-0.44-0.7-0.79-0.69-1.07
		c0.01-0.21,0.16-0.46,0.44-0.76c0.04,0.3,0.17,0.5,0.28,0.61c0.32,0.33,0.8,0.37,1.13,0.37l1.18,0c0.21,0,0.43,0,0.64,0.01
		c0.4,0.01,0.74,0.04,1.04,0.1c1.04,0.2,1.23,0.68,1.27,1.07c0.08,0.67-0.29,1.27-0.97,1.57C102,143.58,101.27,143.73,100.42,143.73
		z M100.23,138.13c-0.17,0-0.34-0.01-0.51-0.01c0,0-0.14-0.01-0.14-0.01c-0.07,0-0.13,0-0.19,0.01l-0.44-0.2
		c-0.68-0.32-1.07-0.64-1.28-1.09c-0.27-0.58-0.24-1.24,0.1-1.81c0.39-0.65,1.1-1.06,1.9-1.1c0.13-0.01,0.27-0.01,0.4-0.01
		c0.51,0,1.02,0.04,1.52,0.09c0.13,0.01,0.27,0.02,0.4,0.03l0.4,0.67c0.5,0.83,0.6,1.64,0.27,2.27c-0.33,0.65-1.1,1.07-2.1,1.15
		C100.46,138.12,100.34,138.13,100.23,138.13z"/>
	<path d="M100.07,134.41c0.48,0,0.97,0.04,1.48,0.08c0.05,0,0.1,0.01,0.15,0.01l0.27,0.45c0.41,0.67,0.5,1.31,0.25,1.79
		c-0.25,0.49-0.87,0.81-1.7,0.88c-0.1,0.01-0.2,0.01-0.3,0.01c-0.16,0-0.32-0.01-0.48-0.01l-0.15-0.01l-0.1,0c-0.01,0-0.01,0-0.02,0
		l-0.32-0.15c-0.57-0.26-0.88-0.51-1.03-0.84c-0.28-0.59-0.07-1.09,0.08-1.34c0.3-0.5,0.86-0.82,1.5-0.86
		C99.82,134.41,99.95,134.41,100.07,134.41 M98.53,140.86c0.34,0.15,0.7,0.17,0.98,0.17l0.13,0l0.53,0l0.52,0
		c0.21,0,0.42,0,0.63,0.01c0.37,0.01,0.69,0.04,0.96,0.09c0.82,0.16,0.85,0.45,0.87,0.64c0.05,0.45-0.2,0.84-0.68,1.06
		c-0.6,0.27-1.27,0.4-2.04,0.4c-0.38,0-0.79-0.03-1.25-0.1c-0.34-0.05-0.69-0.14-1.02-0.28c-0.01-0.01-0.03-0.01-0.04-0.02
		c0.15-0.07,0.27-0.15,0.36-0.21l0.06-0.04l1.12-0.7L98.68,141C98.62,140.95,98.57,140.9,98.53,140.86 M100.07,133.41
		c-0.14,0-0.29,0-0.43,0.01c-1.96,0.1-3.19,1.99-2.43,3.62c0.3,0.65,0.87,1.03,1.52,1.33c-1.87,1.36-2.04,2.18-0.72,3.37
		c-0.1,0.06-0.19,0.14-0.3,0.18c-0.4,0.18-0.71,0.43-0.7,0.9c0,0.51,0.36,0.79,0.77,0.96c0.4,0.16,0.83,0.28,1.25,0.34
		c0.47,0.07,0.93,0.11,1.39,0.11c0.84,0,1.66-0.13,2.46-0.49c0.9-0.4,1.36-1.22,1.26-2.09c-0.09-0.8-0.63-1.3-1.68-1.5
		c-0.37-0.07-0.75-0.1-1.12-0.11c-0.22-0.01-0.44-0.01-0.66-0.01c-0.35,0-0.7,0-1.05,0c-0.04,0-0.08,0-0.13,0
		c-0.47,0-0.93-0.1-0.92-0.67c0.01-0.55,0.4-0.75,0.9-0.75c0.02,0,0.05,0,0.07,0c0.22,0.01,0.44,0.02,0.67,0.02
		c0.13,0,0.25,0,0.38-0.01c2.43-0.19,3.48-2.11,2.22-4.18c0.21,0,0.41-0.01,0.6-0.01c0.12,0,0.24,0,0.36,0.01c0.02,0,0.04,0,0.06,0
		c0.29,0,0.31-0.19,0.3-0.43c0-0.23,0.02-0.45-0.29-0.45c-0.02,0-0.04,0-0.06,0c-0.2,0.02-0.4,0.02-0.6,0.02
		C102.16,133.59,101.12,133.41,100.07,133.41L100.07,133.41z"/>
</g>
<g>
	<path class="st1" d="M107.76,140.4c-0.87-0.04-1.48-0.48-1.85-1.32c-0.6-1.37-0.55-2.72,0.16-4c0.4-0.73,1-1.14,1.67-1.14
		c0.54,0,1.11,0.26,1.64,0.75l0.84,0.77l0-2.17c0-0.8,0.01-1.56-0.02-2.32c-0.01-0.16-0.04-0.29-0.09-0.41l0.35,0
		c0.35,0,0.7,0,1.05,0.01c-0.01,0.07-0.02,0.14-0.02,0.2c0.01,1.63,0.01,3.26,0.01,4.89l0,3.04l-0.01,0.22
		c-0.01,0.29-0.03,0.75,0.23,1.12c-0.51,0.11-1,0.21-1.5,0.27c0.01-0.24-0.04-0.6-0.41-0.81l-0.35-0.2l-0.27,0.3
		c-0.43,0.48-0.82,0.8-1.37,0.8L107.76,140.4z"/>
	<path d="M110.71,131.07c0.1,0,0.2,0,0.29,0c0.01,1.51,0.01,3.02,0.01,4.53c0,1.04,0,2.08,0,3.12c0,0.06,0,0.13-0.01,0.19
		c-0.01,0.28,0.01,0.54,0.06,0.77c-0.14,0.03-0.28,0.05-0.41,0.08c-0.1-0.29-0.29-0.52-0.58-0.68l-0.7-0.4l-0.54,0.6
		c-0.42,0.46-0.68,0.63-1,0.63l-0.05,0c-0.69-0.03-1.12-0.35-1.42-1.02c-0.54-1.22-0.49-2.42,0.14-3.56
		c0.22-0.4,0.61-0.88,1.23-0.88c0.42,0,0.87,0.21,1.31,0.62l1.68,1.55v-2.28c0-0.35,0-0.69,0-1.03
		C110.72,132.53,110.73,131.8,110.71,131.07 M110.47,130.07c-0.59,0-1.18,0.01-1.77,0.01c0.31,0.45,0.98,0.32,1,0.92
		c0.04,1.08,0.01,2.16,0.01,3.33c-0.64-0.59-1.34-0.88-1.98-0.88c-0.83,0-1.6,0.48-2.1,1.4c-0.79,1.43-0.83,2.95-0.17,4.45
		c0.43,0.96,1.17,1.56,2.28,1.62c0.03,0,0.07,0,0.1,0c0.78,0,1.3-0.47,1.74-0.96c0.4,0.22-0.16,0.9,0.42,0.9c0.02,0,0.05,0,0.08,0
		c0.88-0.07,1.76-0.31,2.63-0.47c0.07-0.09,0.14-0.18,0.21-0.26c-1.1-0.09-0.91-0.79-0.91-1.38c-0.01-2.65,0-5.29-0.01-7.94
		c0-0.23,0.22-0.67-0.25-0.69C111.32,130.07,110.9,130.07,110.47,130.07L110.47,130.07z"/>
</g>
<g>
	<path class="st2" d="M77.18,140.23c0.6-0.28,1.01-0.72,1.31-1.2c-0.04,0.38-0.08,0.75-0.1,1.13c0,0.03,0,0.06-0.01,0.08
		c-0.01,0-0.02,0-0.03,0C78.35,140.23,77.56,140.23,77.18,140.23z M71.07,140.22c0.18-0.28,0.23-0.6,0.23-0.83l0-8.02
		c0-0.22-0.04-0.47-0.17-0.7h2.1c-0.27,0.37-0.31,0.9-0.31,1.88l0,1.81c0,1.49,0,2.98,0.01,4.47c0,0.7,0.13,1.13,0.44,1.39
		c-0.06,0-2.11,0-2.11,0H71.07z"/>
	<path d="M72.51,131.16c-0.07,0.36-0.09,0.81-0.09,1.38l0,1.76c0,1.51,0,3.01,0.01,4.52c0,0.34,0.03,0.63,0.1,0.89l-0.35,0l-0.4,0
		c0.02-0.11,0.02-0.22,0.02-0.33l0-2.66l0-5.36c0-0.06,0-0.13-0.01-0.2H72.51 M74.97,130.16c-1.91,0-3.81,0-5.88,0
		c0.33,0.35,0.61,0.22,0.85,0.27c0.5,0.11,0.86,0.35,0.86,0.93c0,2.67,0,5.35,0,8.02c0,0.6-0.34,0.88-0.9,0.98
		c-0.03,0.01-0.07,0.01-0.1,0.01c-0.07,0-0.15-0.01-0.22-0.01c-0.12,0-0.24,0.02-0.34,0.14c0.04,0.2,0.14,0.21,0.24,0.21
		c0.02,0,0.04,0,0.05,0c0,0,0,0,0,0c0.54,0,1.08,0,1.62,0c0.69,0,1.37,0,2.06,0c1.71,0,3.42,0,5.13,0.02c0,0,0.01,0,0.01,0
		c0.43,0,0.51-0.16,0.54-0.54c0.06-0.87,0.18-1.73,0.25-2.6c0.02-0.22,0.22-0.6-0.11-0.66c-0.02,0-0.04-0.01-0.06-0.01
		c-0.26,0-0.23,0.38-0.31,0.59c-0.41,1.08-0.86,2.11-2.14,2.42c-0.34,0.08-0.68,0.1-1.02,0.1c-0.3,0-0.59-0.01-0.89-0.02
		c-0.97-0.01-1.15-0.19-1.16-1.19c-0.01-2.09-0.01-4.19-0.01-6.28c0-1.71,0-1.71,1.55-2.24C74.98,130.3,74.97,130.25,74.97,130.16
		L74.97,130.16z"/>
</g>
<g>
	<path class="st1" d="M93.2,140.16c0.48-1.13,0.38-2.3,0.28-3.44c-0.05-0.57-0.1-1.12-0.07-1.65c0.02-0.32-0.08-0.61-0.28-0.82
		c-0.1-0.11-0.23-0.19-0.37-0.24c0.2-0.09,0.4-0.13,0.59-0.13c0.2,0,0.4,0.05,0.61,0.14c0.5,0.23,0.75,0.67,0.77,1.33
		c0.02,0.69,0.02,1.38,0.02,2.07c0,0.41,0,0.82,0.01,1.24c0,0.11,0,0.22-0.01,0.33c-0.01,0.35-0.03,0.77,0.11,1.17H93.2z
		 M89.28,140.14c0.22-0.46,0.2-0.95,0.19-1.33c0-0.1-0.01-0.21-0.01-0.31c0-0.48,0-0.95,0-1.43c0-0.63,0-1.25,0.01-1.88
		c0-0.3,0.01-0.75-0.19-1.14c0.2,0,0.4-0.01,0.6-0.01c0.29,0,0.57,0,0.86,0.02c-0.01,0.19,0.01,0.46,0.21,0.68l0.11,0.12
		c-0.22,0.35-0.33,0.72-0.33,1.12l0.01,0.66c0.01,0.89,0.02,1.82-0.01,2.72c-0.01,0.31,0.05,0.56,0.17,0.77H89.28z"/>
	<path d="M93.84,134.53c0.19,0.12,0.36,0.33,0.38,0.84c0.02,0.68,0.02,1.37,0.02,2.05c0,0.41,0,0.83,0.01,1.24
		c0,0.1,0,0.21-0.01,0.31c-0.01,0.19-0.02,0.43,0.01,0.69h-0.36c0.26-1.02,0.17-2.04,0.09-2.98c-0.05-0.56-0.09-1.08-0.07-1.58
		C93.92,134.9,93.9,134.71,93.84,134.53 M89.94,134.55c0.12,0,0.24,0,0.35,0c0.03,0.12,0.09,0.25,0.17,0.37
		c-0.16,0.34-0.23,0.69-0.23,1.07l0.01,0.66c0.01,0.89,0.02,1.8-0.01,2.69c0,0.1,0,0.2,0.01,0.29h-0.29
		c0.05-0.32,0.04-0.61,0.03-0.85c0-0.1-0.01-0.19-0.01-0.29c0-0.48,0-0.96,0-1.44c0-0.62,0-1.24,0.01-1.86
		C89.97,135.05,89.97,134.81,89.94,134.55 M93.34,133.38c-0.46,0-0.9,0.18-1.31,0.48c-0.25,0.18-0.48,0.38-0.71,0.57
		c-0.24-0.27,0.16-0.79-0.29-0.83c-0.38-0.03-0.77-0.04-1.15-0.04c-0.54,0-1.08,0.02-1.62,0.02c-0.03,0.08-0.06,0.16-0.09,0.24
		c0.78,0.21,0.8,0.78,0.79,1.38c-0.02,1.1,0,2.21-0.01,3.31c-0.01,0.77,0.22,1.62-0.95,2.14c1.5,0,2.7,0,4.14,0
		c-0.59-0.4-0.95-0.67-0.92-1.25c0.04-1.13,0.02-2.27,0.01-3.4c0-0.54,0.27-0.95,0.62-1.29c0.17-0.17,0.37-0.25,0.55-0.25
		c0.29,0,0.53,0.21,0.51,0.6c-0.09,1.88,0.66,3.86-0.56,5.61c1.18,0,2.37,0,3.57,0c-0.86-0.49-0.66-1.29-0.67-2.01
		c-0.01-1.1,0.01-2.21-0.03-3.31c-0.02-0.77-0.32-1.43-1.06-1.77C93.88,133.44,93.61,133.38,93.34,133.38L93.34,133.38z"/>
</g>
<g>
	<path class="st1" d="M127.22,140.16c0.15-0.42,0.14-0.86,0.13-1.22c0-0.1-0.01-0.2-0.01-0.3c0-1.08,0-2.16-0.01-3.23
		c0-0.28-0.01-1.09-0.75-1.37c0.21-0.1,0.43-0.15,0.63-0.15c0.2,0,0.4,0.05,0.61,0.14c0.5,0.23,0.75,0.67,0.77,1.33
		c0.03,0.8,0.03,1.6,0.03,2.41l0,0.98l0,0.28c-0.01,0.34-0.02,0.75,0.12,1.14H127.22z M123.15,140.14c0.22-0.46,0.2-0.94,0.19-1.32
		c0-0.1-0.01-0.21-0.01-0.31c0-0.51,0-1.02,0-1.53c0-0.59,0-1.19,0-1.78c0-0.32,0.01-0.76-0.18-1.14c0.2,0,0.4-0.01,0.6-0.01
		c0.28,0,0.57,0,0.85,0.02c-0.01,0.2,0.01,0.45,0.21,0.68l0.12,0.14c-0.19,0.3-0.35,0.65-0.34,1.1c0.02,1.13,0.02,2.26,0.01,3.39
		c0,0.31,0.05,0.56,0.14,0.76H123.15z"/>
	<path d="M127.7,134.52c0.2,0.12,0.38,0.33,0.39,0.85c0.02,0.79,0.02,1.61,0.02,2.39l0,0.98c0,0.09,0,0.17,0,0.26
		c0,0.19-0.01,0.41,0.01,0.65h-0.28c0.03-0.27,0.02-0.53,0.01-0.74c0-0.1-0.01-0.19-0.01-0.29c0-1.08,0-2.16-0.01-3.24
		C127.84,135.04,127.78,134.76,127.7,134.52 M123.81,134.55c0.12,0,0.24,0,0.35,0c0.03,0.13,0.09,0.26,0.18,0.39
		c-0.14,0.29-0.25,0.64-0.24,1.05c0.02,1.08,0.02,2.22,0.01,3.38c0,0.09,0,0.18,0.01,0.27h-0.3c0.04-0.32,0.03-0.61,0.03-0.84
		c0-0.1-0.01-0.19-0.01-0.29c0-0.51,0-1.01,0-1.52c0-0.6,0-1.2,0-1.79C123.84,135.04,123.84,134.81,123.81,134.55 M127.21,133.38
		c-0.46,0-0.9,0.18-1.31,0.48c-0.25,0.18-0.48,0.38-0.71,0.56c-0.24-0.27,0.16-0.79-0.29-0.83c-0.38-0.03-0.76-0.04-1.15-0.04
		c-0.54,0-1.08,0.02-1.62,0.02c-0.03,0.08-0.06,0.16-0.1,0.24c0.8,0.2,0.81,0.78,0.8,1.38c-0.01,1.1,0,2.21-0.01,3.31
		c-0.01,0.77,0.22,1.62-0.96,2.13c1.51,0,2.71,0,3.91,0c0.06-0.06,0.12-0.12,0.18-0.19c-0.69-0.12-0.87-0.53-0.86-1.07
		c0.01-1.13,0.01-2.27-0.01-3.4c-0.01-0.38,0.16-0.67,0.35-0.96c0.19-0.27,0.39-0.57,0.73-0.57c0.05,0,0.11,0.01,0.17,0.02
		c0.44,0.12,0.49,0.53,0.49,0.92c0.01,1.08,0.01,2.15,0.01,3.23c0,0.73,0.17,1.52-0.67,2.03c1.2,0,2.41,0,3.61,0
		c-0.82-0.47-0.67-1.22-0.67-1.92c-0.01-1.13,0.01-2.27-0.03-3.4c-0.02-0.77-0.32-1.43-1.06-1.77
		C127.75,133.44,127.48,133.38,127.21,133.38L127.21,133.38z"/>
</g>
<g>
	<path class="st1" d="M85.48,140.4c-0.52,0-0.81-0.24-0.96-0.79l-0.19-0.69l-0.81,0.59c-0.48,0.35-0.89,0.65-1.38,0.8
		c-0.2,0.06-0.39,0.09-0.57,0.09c-0.28,0-0.67-0.07-0.89-0.43c-0.27-0.43-0.11-1.03,0.39-1.47c0.61-0.54,1.35-0.88,2.14-1.24
		l0.47-0.22c0.83-0.39,1.15-1.35,0.83-2.49c-0.07-0.24-0.18-0.45-0.32-0.62c0.77,0.11,1.33,0.46,1.55,0.98
		c0.09,0.21,0.09,0.46,0.09,0.74l0,0.53c0.01,0.9,0.01,1.8,0,2.7c-0.01,0.42-0.01,0.89,0.29,1.2c0.04,0.04,0.09,0.08,0.15,0.12
		c-0.21,0.12-0.44,0.18-0.72,0.2L85.48,140.4z M81.42,136.05c-0.12,0-0.25-0.04-0.39-0.11c-0.22-0.11-0.35-0.26-0.27-0.61
		c0.08-0.33,0.36-0.64,0.76-0.89c0,0.37,0.2,0.71,0.28,0.84c0.22,0.38,0.1,0.5,0.01,0.59C81.64,136.03,81.51,136.05,81.42,136.05z"
		/>
	<path d="M85.09,134.83c0.09,0.08,0.15,0.18,0.2,0.28c0.05,0.12,0.05,0.31,0.05,0.55l0,0.49c0.01,0.91,0.01,1.81,0,2.72
		c0,0.3-0.01,0.68,0.11,1.03c-0.21,0-0.34-0.04-0.45-0.43l-0.38-1.38l-1.16,0.83l-0.24,0.17c-0.44,0.32-0.82,0.6-1.23,0.72
		c-0.15,0.05-0.29,0.07-0.43,0.07c-0.23,0-0.38-0.06-0.46-0.19c-0.13-0.21-0.01-0.56,0.29-0.83c0.56-0.49,1.27-0.81,2.02-1.16
		c0.16-0.07,0.32-0.14,0.47-0.22C84.66,137.13,85.33,136.25,85.09,134.83 M81.27,135.36c0.03,0.06,0.06,0.11,0.09,0.17
		c0,0,0,0.01,0.01,0.01c-0.03-0.01-0.07-0.02-0.12-0.05c-0.01,0-0.01-0.01-0.02-0.01c0-0.01,0-0.03,0.01-0.05
		C81.25,135.41,81.26,135.38,81.27,135.36 M83.62,133.39c-0.13,0-0.27,0.01-0.41,0.02c-1.49,0.11-2.73,0.87-2.94,1.8
		c-0.12,0.51,0.04,0.92,0.52,1.17c0.21,0.11,0.42,0.17,0.62,0.17c0.26,0,0.52-0.1,0.74-0.33c0.36-0.36,0.32-0.76,0.07-1.19
		c-0.41-0.71-0.22-1.05,0.59-1.1c0.05,0,0.09,0,0.13,0c0.51,0,0.92,0.2,1.08,0.76c0.26,0.91,0.04,1.62-0.56,1.9
		c-0.94,0.44-1.93,0.83-2.72,1.53c-0.7,0.61-0.87,1.48-0.48,2.11c0.27,0.44,0.75,0.66,1.31,0.66c0.23,0,0.47-0.04,0.71-0.11
		c0.65-0.2,1.17-0.62,1.76-1.04c0.21,0.76,0.69,1.16,1.44,1.16c0.03,0,0.06,0,0.1,0c0.79-0.03,1.37-0.39,1.82-1.25
		c-0.28,0.13-0.48,0.19-0.63,0.19c-0.43,0-0.43-0.45-0.43-0.94c0.02-1.08,0-2.15,0-3.23c0-0.32,0-0.63-0.13-0.94
		C85.84,133.87,84.9,133.39,83.62,133.39L83.62,133.39z"/>
</g>
<g>
	<path class="st1" d="M117.43,140.39c-1.78,0-2.99-1.29-2.99-3.2c-0.01-1.94,1.2-3.3,2.92-3.3c1.83,0,3.05,1.31,3.05,3.26
		c0,1.93-1.19,3.23-2.97,3.24H117.43z"/>
	<path d="M117.37,133.39v1c1.54,0,2.53,1.09,2.54,2.77c0,1.66-0.97,2.73-2.49,2.74c-1.51,0-2.49-1.06-2.49-2.7
		c-0.01-1.64,0.99-2.8,2.43-2.8L117.37,133.39 M117.37,133.39c-0.01,0-0.01,0-0.02,0c-2,0.01-3.43,1.6-3.42,3.81
		c0.01,2.18,1.44,3.7,3.49,3.7c0.01,0,0.01,0,0.02,0c2.07-0.01,3.47-1.52,3.47-3.74C120.91,134.92,119.47,133.39,117.37,133.39
		L117.37,133.39z"/>
</g>
<g>
	<path class="st0" d="M96.11,82.41c-0.1,0-0.21-0.05-0.3-0.14c-0.15-0.16-0.24-0.4-0.24-0.66c0.05-0.3,0.24-0.47,0.61-0.47
		c0,0,0,0,0,0c0.2,0,0.38,0.08,0.51,0.23c0.06,0.07,0.16,0.2,0.14,0.37c-0.04,0.41-0.27,0.63-0.69,0.68L96.11,82.41z"/>
	<path d="M96.19,80.63c-0.01,0-0.01,0-0.02,0c-0.7,0.01-1.02,0.44-1.1,0.96c-0.01,0.73,0.48,1.31,1.04,1.31c0.03,0,0.06,0,0.09-0.01
		c0.64-0.07,1.06-0.47,1.13-1.12C97.39,81.18,96.83,80.63,96.19,80.63L96.19,80.63z"/>
</g>
<g>
	<path class="st0" d="M116.64,75.56c-0.5-0.06-0.62-0.29-0.65-0.62c-0.01-0.17,0.03-0.32,0.14-0.43c0.11-0.12,0.27-0.18,0.45-0.18
		c0.44,0.01,0.63,0.17,0.67,0.6c0.01,0.13-0.04,0.27-0.15,0.39C116.98,75.45,116.8,75.54,116.64,75.56z"/>
	<path d="M116.59,73.82c-0.65,0-1.14,0.51-1.08,1.16c0.06,0.68,0.47,1.02,1.13,1.08c0.61-0.02,1.18-0.6,1.12-1.19
		c-0.07-0.67-0.46-1.03-1.15-1.04C116.6,73.82,116.59,73.82,116.59,73.82L116.59,73.82z"/>
</g>
<g>
	<path class="st1" d="M84.2,102c-0.4-0.02-0.57-0.21-0.56-0.63c0.01-0.4,0.19-0.6,0.61-0.63c0,0,0,0,0,0c0.15,0,0.28,0.06,0.38,0.16
		c0.13,0.13,0.21,0.32,0.2,0.5c0,0.36-0.24,0.6-0.59,0.6L84.2,102z"/>
	<path d="M84.27,101.25c0.03,0.02,0.08,0.08,0.08,0.15c0,0.09-0.03,0.1-0.1,0.1c0,0-0.01,0-0.01,0c-0.04,0-0.06-0.01-0.08-0.01
		c0-0.02-0.01-0.06-0.01-0.11c0-0.07,0.01-0.11,0.01-0.11c0,0,0,0,0,0C84.16,101.27,84.2,101.26,84.27,101.25 M84.28,100.25
		c-0.02,0-0.04,0-0.07,0c-0.67,0.05-1.06,0.46-1.07,1.12c-0.01,0.66,0.32,1.09,1.03,1.13c0.03,0,0.05,0,0.08,0
		c0.63,0,1.09-0.46,1.09-1.09C85.35,100.8,84.86,100.25,84.28,100.25L84.28,100.25z"/>
</g>
<g>
	<path class="st3" d="M124.03,104.98c-1.03,0-1.95-0.36-2.72-1.07c-0.09-0.08-0.14-0.13-0.16-0.16c0.02-0.01,0.06-0.07,0.13-0.14
		c3.01-3.11,4.46-6.98,4.32-11.51c-0.03-0.81-0.18-1.68-0.45-2.6c-0.08-0.26-0.08-0.28,0.22-0.48c2.34-1.53,5.06-2.5,8.3-2.98
		c0.26-0.04,0.53-0.06,0.79-0.09c0.41-0.04,0.82-0.08,1.22-0.16c0.07-0.01,0.14-0.02,0.19-0.02c0,0,0,0,0.01,0
		c0.02,0,0.06,0.06,0.09,0.23c0.24,1.38,0.38,2.78,0.41,4.39c-0.13,2.95-0.43,6.36-2.46,9.16c-2.49,3.44-5.76,5.27-9.72,5.43
		L124.03,104.98z"/>
	<path d="M135.53,86.33c0.21,1.27,0.33,2.56,0.36,4.03c-0.12,2.9-0.42,6.21-2.36,8.88c-2.4,3.31-5.54,5.07-9.33,5.23
		c-0.06,0-0.11,0-0.17,0c-0.81,0-1.54-0.25-2.17-0.75c2.96-3.17,4.39-7.09,4.24-11.64c-0.03-0.83-0.18-1.72-0.45-2.65
		c2.28-1.49,4.93-2.44,8.1-2.9c0.26-0.04,0.51-0.06,0.77-0.09C134.84,86.41,135.18,86.38,135.53,86.33 M135.88,85.26
		c-0.09,0-0.18,0.01-0.29,0.03c-0.65,0.13-1.33,0.15-1.99,0.24c-3.04,0.45-5.91,1.36-8.5,3.06c-0.41,0.27-0.6,0.49-0.43,1.04
		c0.24,0.8,0.41,1.64,0.43,2.47c0.13,4.28-1.18,8.04-4.18,11.15c-0.45,0.47-0.32,0.68,0.05,1.02c0.87,0.8,1.91,1.2,3.06,1.2
		c0.07,0,0.14,0,0.21,0c4.31-0.18,7.63-2.23,10.1-5.64c2.06-2.84,2.41-6.21,2.55-9.46c-0.03-1.59-0.16-3.03-0.42-4.47
		C136.39,85.46,136.23,85.26,135.88,85.26L135.88,85.26z"/>
</g>
<g>
	<path class="st4" d="M100.76,122.74c-2.52-0.15-5.07-0.97-8.02-2.59c-0.47-0.26-0.93-0.55-1.38-0.84
		c-0.37-0.24-0.74-0.47-1.12-0.69c-0.03-0.02-0.05-0.03-0.07-0.04c0.01-0.02,0.03-0.06,0.06-0.12c1.1-2.2,2.76-4.25,5.2-6.45
		c0.02-0.01,0.03-0.01,0.05-0.01c0.07,0,0.15,0.05,0.19,0.07c2.64,1.5,5.42,2.27,8.26,2.27c2.11,0,4.31-0.42,6.54-1.25
		c0.62-0.23,1.24-0.58,1.86-1.03c0.02-0.01,0.03-0.02,0.04-0.03c0.01,0.01,0.02,0.03,0.03,0.05c0.7,1.24,0.79,2.39,0.28,3.53
		c-0.96,2.14-2.65,3.78-5.45,5.32C105.1,122.08,102.98,122.67,100.76,122.74z"/>
	<path d="M95.55,112.56c2.67,1.5,5.49,2.26,8.38,2.26c2.17,0,4.43-0.43,6.71-1.28c0.51-0.19,1.02-0.45,1.54-0.79
		c0.42,0.93,0.42,1.78,0.04,2.64c-0.92,2.03-2.53,3.6-5.24,5.08c-2.05,1.12-4.08,1.7-6.22,1.76c-2.44-0.15-4.91-0.95-7.79-2.53
		c-0.45-0.25-0.89-0.53-1.35-0.82c-0.26-0.17-0.53-0.33-0.8-0.5C91.86,116.41,93.37,114.55,95.55,112.56 M95.47,111.45
		c-0.12,0-0.24,0.05-0.38,0.18c-2.13,1.91-4.02,4.01-5.32,6.6c-0.2,0.39-0.19,0.59,0.2,0.82c0.85,0.49,1.65,1.07,2.51,1.54
		c2.61,1.43,5.34,2.48,8.25,2.65c2.47-0.07,4.66-0.76,6.71-1.89c2.4-1.32,4.5-2.96,5.67-5.55c0.63-1.39,0.43-2.7-0.3-3.98
		c-0.12-0.21-0.24-0.35-0.41-0.35c-0.11,0-0.23,0.05-0.39,0.17c-0.53,0.39-1.12,0.73-1.74,0.96c-2.15,0.8-4.27,1.22-6.36,1.22
		c-2.72,0-5.4-0.71-8.01-2.2C95.75,111.52,95.61,111.45,95.47,111.45L95.47,111.45z"/>
</g>
<g>
	<path class="st5" d="M95.51,109.02c-0.09,0-0.24-0.13-0.35-0.25c-1.97-1.98-3.63-4.28-4.92-6.82l-0.06-0.11
		c2.32-1.62,5-2.71,8.23-3.36c0.01,0.02,0.02,0.04,0.02,0.05c0.04,0.09,0.08,0.18,0.12,0.26c2.69,4.47,6.48,7.31,11.25,8.43
		c0.51,0.12,1.07,0.18,1.69,0.18c0.43,0,0.87-0.03,1.3-0.07c-0.02,0.09-0.03,0.18-0.04,0.25c0,0.04,0,0.08-0.02,0.12l-0.05,0.22
		c-0.09,0.4-0.19,0.82-0.41,0.98c0,0-0.01,0-0.01,0c-0.08,0-0.21-0.12-0.29-0.2c-0.14-0.14-0.31-0.29-0.51-0.39
		c-2.62-1.29-5.18-1.94-7.61-1.94c-2.75,0-5.43,0.83-7.96,2.47C95.67,108.99,95.56,109.02,95.51,109.02z"/>
	<path d="M98.12,99.05C98.12,99.05,98.12,99.05,98.12,99.05c1.83,3.03,4.14,5.33,6.91,6.88c-0.39-0.03-0.78-0.05-1.17-0.05
		c-2.85,0-5.62,0.86-8.24,2.55c-0.02,0.02-0.05,0.03-0.07,0.04c-0.01-0.01-0.03-0.03-0.05-0.05c-1.87-1.87-3.44-4.03-4.69-6.42
		C92.88,100.64,95.27,99.67,98.12,99.05 M112.19,107.89c-0.02,0.08-0.04,0.18-0.07,0.28c-0.11-0.09-0.23-0.18-0.37-0.26
		C111.89,107.9,112.04,107.9,112.19,107.89 M98.48,97.97c-0.04,0-0.08,0-0.13,0.02c-3.06,0.61-5.95,1.67-8.52,3.48
		c-0.37,0.26-0.17,0.46-0.04,0.72c1.31,2.58,2.97,4.89,5.02,6.95c0.27,0.27,0.48,0.39,0.71,0.39c0.19,0,0.4-0.09,0.66-0.25
		c2.53-1.64,5.1-2.39,7.69-2.39c2.44,0,4.91,0.67,7.39,1.89c0.34,0.17,0.62,0.67,1,0.67c0.1,0,0.21-0.04,0.34-0.13
		c0.42-0.32,0.51-0.95,0.64-1.48c0.03-0.14,0.02-0.29,0.06-0.43c0.13-0.43-0.01-0.57-0.36-0.57c-0.05,0-0.1,0-0.16,0.01
		c-0.43,0.04-0.86,0.07-1.28,0.07c-0.53,0-1.06-0.04-1.58-0.17c-4.84-1.14-8.4-3.99-10.94-8.2C98.84,98.32,98.82,97.97,98.48,97.97
		L98.48,97.97z"/>
</g>
<g>
	<path class="st6" d="M117.64,103.35c0.14-0.47,0.25-0.93,0.34-1.4c0.06,0.31,0.14,0.6,0.23,0.9c0.06,0.2,0.04,0.27,0.04,0.27
		s0,0,0,0c-0.01,0-0.06,0.04-0.27,0.11C117.88,103.27,117.76,103.31,117.64,103.35z M118.02,97.65c-0.33-1.99-1.14-4.03-2.44-6.18
		c-0.96-1.6-2.41-2.97-4.43-4.2c-0.06-0.03-0.09-0.06-0.12-0.08c0.01-0.02,0.03-0.05,0.05-0.09c1.34-2.33,3.12-4.51,5.45-6.65
		c0.09-0.09,0.14-0.1,0.14-0.1c-0.01,0.01,0.07,0.07,0.19,0.18c2.34,2.08,4.15,4.65,5.54,7.85c0.08,0.18,0.08,0.19-0.03,0.31
		c-2.21,2.5-3.65,5.42-4.29,8.69C118.06,97.46,118.04,97.55,118.02,97.65z"/>
	<path d="M116.66,81c2.2,1.99,3.91,4.43,5.24,7.46c-1.81,2.08-3.11,4.44-3.88,7.04c-0.45-1.4-1.12-2.82-2.01-4.3
		c-0.96-1.59-2.37-2.96-4.31-4.19C112.95,84.93,114.56,82.97,116.66,81 M116.65,79.84c-0.13,0-0.28,0.07-0.45,0.23
		c-2.17,2-4.08,4.2-5.55,6.77c-0.24,0.42-0.17,0.6,0.24,0.85c1.7,1.04,3.22,2.31,4.26,4.03c2.32,3.84,3.43,7.88,1.69,12.43
		c0.52-0.18,0.92-0.31,1.32-0.45c0.47-0.17,0.73-0.34,0.53-1c-0.53-1.72-0.47-3.47-0.13-5.24c0.63-3.2,2.02-6.01,4.18-8.45
		c0.25-0.28,0.27-0.49,0.12-0.84c-1.33-3.07-3.15-5.79-5.66-8.03C117,79.97,116.83,79.84,116.65,79.84L116.65,79.84z"/>
</g>
<g>
	<path class="st7" d="M108.39,97.89c-1.5-0.87-2.96-1.43-4.45-1.7c-0.95-0.17-1.81-0.32-2.71-0.32c-0.45,0-0.86,0.04-1.27,0.11
		c-0.01,0-0.01,0-0.02,0c-0.01-0.02-0.02-0.06-0.03-0.09c-0.73-2.81-0.83-5.85-0.3-9.57c0.01-0.06,0.02-0.09,0.02-0.11
		c0,0,0.05,0,0.1,0c2.88,0.13,5.62,0.79,8.41,2.02C107.17,91.2,107.25,94.29,108.39,97.89z"/>
	<path d="M100.06,86.73c2.51,0.15,4.95,0.73,7.47,1.79c-0.77,2.6-0.76,5.31,0.04,8.37c-1.18-0.58-2.36-0.97-3.55-1.19
		c-0.98-0.18-1.86-0.33-2.8-0.33c-0.32,0-0.62,0.02-0.92,0.05C99.7,92.86,99.62,90.09,100.06,86.73 M99.74,85.72
		c-0.38,0-0.56,0.15-0.62,0.54c-0.46,3.27-0.53,6.53,0.31,9.76c0.08,0.31,0.15,0.48,0.42,0.48c0.06,0,0.12-0.01,0.2-0.02
		c0.39-0.07,0.79-0.1,1.18-0.1c0.88,0,1.75,0.15,2.62,0.31c1.93,0.35,3.66,1.18,5.31,2.28c0.01-0.13,0.04-0.23,0.02-0.3
		c-1.22-3.4-1.72-6.84-0.52-10.37c0.1-0.29-0.03-0.39-0.29-0.5c-2.73-1.2-5.57-1.93-8.55-2.07C99.79,85.72,99.76,85.72,99.74,85.72
		L99.74,85.72z"/>
</g>
<g>
	<path class="st7" d="M115.16,103.43c-0.03-0.01-0.08-0.03-0.16-0.07c-1.63-0.83-2.84-2.25-3.81-4.47
		c-1.49-3.42-1.85-6.53-1.08-9.49c0.01-0.05,0.03-0.1,0.04-0.13c0.03,0.02,0.07,0.04,0.11,0.07c2.83,1.85,4.61,4.57,5.45,8.31
		c0.15,0.65,0.21,1.34,0.21,2.36c0.05,1.07-0.18,2.2-0.67,3.29C115.2,103.36,115.17,103.4,115.16,103.43z"/>
	<g>
		<path d="M110.46,90.08c2.44,1.76,4,4.28,4.75,7.67c0.14,0.62,0.19,1.27,0.19,2.3c0.04,0.86-0.13,1.78-0.49,2.7
			c-1.37-0.8-2.42-2.1-3.27-4.06C110.29,95.58,109.9,92.76,110.46,90.08 M110.03,88.7c-0.19,0-0.3,0.18-0.4,0.57
			c-0.89,3.42-0.27,6.67,1.1,9.81c0.86,1.97,2.04,3.7,4.04,4.72c0.18,0.09,0.32,0.14,0.44,0.14c0.2,0,0.34-0.14,0.48-0.45
			c0.52-1.16,0.77-2.36,0.72-3.5c0-0.92-0.05-1.7-0.22-2.47c-0.8-3.59-2.51-6.57-5.66-8.62C110.31,88.77,110.15,88.7,110.03,88.7
			L110.03,88.7z"/>
	</g>
</g>
<g>
	<path class="st5" d="M112.15,105.1c-4.19,0-9.36-3.2-11.26-6.86c0.24-0.02,0.49-0.04,0.74-0.04c3.69,0,8.66,2.62,10.63,6.89
		C112.23,105.1,112.19,105.1,112.15,105.1z"/>
	<g>
		<path d="M101.74,98.71c3.31,0.05,7.62,2.24,9.69,5.86C107.83,104.26,103.68,101.72,101.74,98.71 M101.63,97.71
			c-0.51,0-1.01,0.05-1.48,0.14c1.74,4.16,7.4,7.75,12,7.75c0.29,0,0.57-0.01,0.85-0.04C111.23,100.87,105.89,97.71,101.63,97.71
			L101.63,97.71z"/>
	</g>
</g>
<g>
	<path class="st4" d="M104.15,112.02c-2.68-0.02-4.8-0.48-6.65-1.46c-0.04-0.02-0.07-0.04-0.09-0.05c0.02-0.01,0.04-0.03,0.07-0.04
		c1.79-1.14,4.06-1.77,6.41-1.77c2.4,0,4.74,0.64,6.67,1.81c-1.81,1.02-3.87,1.52-6.27,1.52H104.15z"/>
	<g>
		<path d="M103.89,109.19L103.89,109.19c1.99,0,3.93,0.45,5.61,1.3c-1.53,0.7-3.22,1.04-5.22,1.04l-0.12,0
			c-2.25-0.02-4.08-0.35-5.69-1.06C100.04,109.64,101.94,109.19,103.89,109.19 M103.89,108.19c-2.39,0-4.76,0.62-6.68,1.85
			c-0.72,0.46-0.54,0.64,0.06,0.96c2.16,1.14,4.49,1.51,6.88,1.52c0.04,0,0.09,0,0.13,0c2.53,0,4.96-0.52,7.21-2.01
			C109.29,108.96,106.57,108.19,103.89,108.19L103.89,108.19z"/>
	</g>
</g>
<g>
	<path class="st6" d="M120.22,101.4c-0.43-3.43,0.51-6.64,2.98-10.18C123.83,94.03,122.86,98.29,120.22,101.4z"/>
	<g>
		<path d="M122.87,92.64c0.08,2.23-0.67,5.05-2.25,7.4C120.58,97.57,121.31,95.18,122.87,92.64 M123.39,90.12
			c-2.75,3.66-4.45,7.58-3.49,12.37C123.54,98.86,124.62,93.15,123.39,90.12L123.39,90.12z"/>
	</g>
</g>
<g>
	<path class="st1" d="M100.45,143.2c-0.77,0-1.3-0.13-1.49-0.26c-0.23-0.16-0.23-0.21-0.23-0.24c0-0.04,0.01-0.14,0.2-0.17
		c0.38-0.05,0.76-0.07,1.05-0.09l0.31-0.02c0.21,0.02,0.47,0.02,0.71,0.02c0.46,0.01,0.83,0.01,1.17,0.11
		c0.19,0.06,0.24,0.09,0.24,0.1c0.01,0.05-0.06,0.12-0.17,0.19C102.02,143.03,101.33,143.2,100.45,143.2z"/>
	<path d="M100.26,141.93c-0.31,0.02-0.86,0.03-1.4,0.11c-0.32,0.05-0.6,0.26-0.63,0.63c-0.03,0.33,0.2,0.53,0.45,0.69
		c0.34,0.23,1.05,0.34,1.77,0.34c0.83,0,1.7-0.15,2.09-0.43c0.22-0.16,0.41-0.35,0.37-0.64c-0.04-0.33-0.31-0.45-0.6-0.54
		C101.72,141.91,101.11,141.98,100.26,141.93L100.26,141.93z"/>
</g>
<g>
	<path class="st0" d="M100.21,137.59c-0.08,0-0.19,0-0.33-0.4c-0.11-0.34-0.12-0.71-0.12-1.18c-0.02-0.53,0.04-0.95,0.18-1.3
		c0.11-0.28,0.24-0.28,0.3-0.28c0.07,0,0.19,0,0.27,0.27c0.25,0.88,0.26,1.74,0.04,2.56c-0.09,0.33-0.25,0.33-0.31,0.33
		L100.21,137.59z"/>
	<path d="M100.24,133.93c-0.39,0-0.63,0.26-0.76,0.59c-0.19,0.49-0.23,1.01-0.21,1.46c0,0.52,0,0.95,0.14,1.37
		c0.14,0.4,0.35,0.74,0.8,0.74c0.01,0,0.02,0,0.03,0c0.42-0.01,0.67-0.31,0.78-0.7c0.26-0.94,0.23-1.89-0.04-2.83
		c-0.1-0.35-0.33-0.62-0.74-0.63C100.25,133.93,100.24,133.93,100.24,133.93L100.24,133.93z"/>
</g>
<g>
	<path class="st0" d="M108.43,139.51c-0.06,0-0.22,0-0.38-0.58c-0.36-1.3-0.37-2.66-0.02-4.05c0.11-0.43,0.25-0.45,0.34-0.46
		c0,0,0,0,0,0c0.18,0,0.29,0.11,0.53,0.42c0.38,0.49,0.36,1.07,0.35,1.74c0,0.22-0.01,0.44,0,0.66l0,0.45
		c0.01,0.33,0.01,0.65-0.01,0.98c-0.04,0.56-0.41,0.75-0.71,0.82L108.43,139.51z"/>
	<path d="M108.48,135.13c0.01,0.01,0.01,0.02,0.02,0.03c0.26,0.34,0.26,0.74,0.24,1.43c-0.01,0.23-0.01,0.46,0,0.65
		c0,0.16,0,0.32,0,0.48c0.01,0.33,0.01,0.64-0.01,0.94c-0.01,0.16-0.06,0.25-0.16,0.31c-0.02-0.04-0.03-0.1-0.05-0.16
		C108.2,137.62,108.18,136.39,108.48,135.13 M108.4,133.93c-0.03,0-0.05,0-0.08,0c-0.49,0.04-0.68,0.44-0.78,0.83
		c-0.36,1.43-0.37,2.88,0.03,4.3c0.13,0.45,0.34,0.95,0.87,0.95c0.06,0,0.13-0.01,0.2-0.02c0.64-0.13,1.06-0.58,1.11-1.27
		c0.03-0.49,0.01-0.99,0.01-1.48c-0.03-0.91,0.18-1.87-0.45-2.69C109.06,134.24,108.81,133.93,108.4,133.93L108.4,133.93z"/>
</g>
<g>
	<path class="st1" d="M83.1,139.18c-0.05,0-0.11-0.03-0.17-0.1c-0.12-0.13-0.14-0.26-0.06-0.44c0.15-0.35,0.39-0.61,0.7-0.85
		c0,0.35,0,0.68,0.01,1.01c0.01,0.12,0.01,0.17-0.37,0.35C83.17,139.17,83.13,139.18,83.1,139.18z"/>
	<path d="M84.08,136.84c-0.75,0.46-1.35,0.87-1.66,1.6c-0.15,0.35-0.1,0.69,0.16,0.97c0.16,0.17,0.34,0.26,0.54,0.26
		c0.11,0,0.22-0.03,0.33-0.08c0.34-0.17,0.67-0.34,0.64-0.82C84.05,138.17,84.08,137.57,84.08,136.84L84.08,136.84z"/>
</g>
<g>
	<path class="st0" d="M117.43,139.86c-0.23,0-0.48-0.07-0.57-0.55c-0.24-1.32-0.24-2.74,0.02-4.33c0.08-0.48,0.33-0.55,0.56-0.55
		c0.2,0,0.41,0.04,0.56,0.52c0.15,0.51,0.15,1.05,0.14,1.62c0,0.16,0,0.33,0,0.49c0.01,0.71-0.01,1.48-0.16,2.24
		C117.87,139.86,117.59,139.86,117.43,139.86L117.43,139.86z"/>
	<path d="M117.44,134.91C117.45,134.92,117.45,134.92,117.44,134.91l0,0.01l0,0c0.02,0.03,0.04,0.08,0.07,0.17
		c0.13,0.44,0.13,0.94,0.12,1.47c0,0.17,0,0.34,0,0.5c0.01,0.69-0.01,1.43-0.15,2.14c-0.02,0.08-0.04,0.13-0.05,0.16
		c0,0-0.01,0-0.01,0c-0.02,0-0.03,0-0.04,0c0,0,0,0,0,0c-0.01-0.02-0.03-0.07-0.04-0.14c-0.23-1.26-0.22-2.62,0.03-4.16
		c0.01-0.07,0.03-0.12,0.02-0.12c0.01,0,0.03,0,0.05,0L117.44,134.91 M117.45,133.93c0,0-0.01,0-0.01,0
		c-0.63,0.01-0.96,0.4-1.05,0.97c-0.24,1.5-0.3,3-0.02,4.51c0.11,0.57,0.45,0.96,1.06,0.96c0,0,0.01,0,0.01,0
		c0.61,0,0.92-0.4,1.04-0.96c0.15-0.77,0.17-1.56,0.17-2.34c-0.01-0.75,0.06-1.51-0.16-2.25
		C118.32,134.29,118.02,133.93,117.45,133.93L117.45,133.93z"/>
</g>
</svg>
